<?xml version="1.0" encoding="UTF-8"?>
<svg version="1.1" xmlns="http://www.w3.org/2000/svg" width="500" height="500">
<path d="M0 0 C1.14695343 -0.0146228 1.14695343 -0.0146228 2.31707764 -0.02954102 C20.16457588 -0.210033 37.28786712 0.2971318 54.78515625 4.23828125 C55.63513184 4.42551758 56.48510742 4.61275391 57.36083984 4.80566406 C75.42589437 8.89386675 92.50439364 15.44811814 108.78515625 24.23828125 C109.38666504 24.55909668 109.98817383 24.87991211 110.60791016 25.21044922 C124.97215562 32.92334786 137.5406831 42.53844597 149.78515625 53.23828125 C151.05552734 54.32302734 151.05552734 54.32302734 152.3515625 55.4296875 C157.29746412 59.70609313 161.58806219 64.23568428 165.78515625 69.23828125 C166.61917969 70.18445313 167.45320313 71.130625 168.3125 72.10546875 C185.01021557 91.1503721 199.40247411 114.88918675 206.78515625 139.23828125 C206.78515625 139.89828125 206.78515625 140.55828125 206.78515625 141.23828125 C222.62515625 141.23828125 238.46515625 141.23828125 254.78515625 141.23828125 C249.85119583 156.04016251 238.21614677 168.17572173 226.07421875 177.6171875 C223.70304239 179.29643356 221.33135297 180.83744727 218.78515625 182.23828125 C218.12515625 182.23828125 217.46515625 182.23828125 216.78515625 182.23828125 C216.85734375 182.90988281 216.92953125 183.58148438 217.00390625 184.2734375 C220.92376514 226.46636307 212.87393176 267.92627624 192.78515625 305.23828125 C192.1715625 306.40488281 191.55796875 307.57148438 190.92578125 308.7734375 C178.2984671 331.91481695 159.57300679 353.15504952 138.78515625 369.23828125 C138.26566406 369.65013672 137.74617188 370.06199219 137.2109375 370.48632812 C107.56823452 393.89772656 72.0178875 407.24410108 34.78515625 412.23828125 C33.81707031 412.36976563 32.84898437 412.50125 31.8515625 412.63671875 C-9.41587282 417.06892516 -50.84107567 407.59829635 -87.45458984 388.71191406 C-101.65048189 381.13307058 -114.105536 371.78192789 -126.21484375 361.23828125 C-126.73965332 360.78791504 -127.26446289 360.33754883 -127.80517578 359.87353516 C-133.44827702 355.02760063 -138.45210161 349.93988016 -143.21484375 344.23828125 C-144.05917969 343.27019531 -144.90351563 342.30210937 -145.7734375 341.3046875 C-168.63273737 315.01789901 -184.11245692 283.58302413 -191.46484375 249.55078125 C-191.61606689 248.85194824 -191.76729004 248.15311523 -191.9230957 247.43310547 C-194.57423068 234.28670942 -195.52772821 221.35448566 -195.4206543 207.97998047 C-195.40208857 205.580298 -195.40014769 203.18099776 -195.40039062 200.78125 C-195.39548379 199.2330696 -195.38965916 197.68489178 -195.3828125 196.13671875 C-195.38169968 195.43042328 -195.38058685 194.72412781 -195.37944031 193.99642944 C-195.34110914 189.9790691 -194.9848862 186.18105223 -194.21484375 182.23828125 C-194.93285156 181.98046875 -195.65085938 181.72265625 -196.390625 181.45703125 C-208.42076876 176.26559992 -218.52364669 165.43132684 -225.67578125 154.703125 C-232.21484375 144.23066704 -232.21484375 144.23066704 -232.21484375 141.23828125 C-216.70484375 140.90828125 -201.19484375 140.57828125 -185.21484375 140.23828125 C-182.57484375 133.63828125 -179.93484375 127.03828125 -177.21484375 120.23828125 C-175.5011692 116.57670606 -173.80964153 113.03400338 -171.90234375 109.48828125 C-171.44359863 108.62541504 -170.98485352 107.76254883 -170.51220703 106.87353516 C-161.09352324 89.51455138 -148.71097583 74.55906521 -135.21484375 60.23828125 C-134.52519531 59.50609375 -133.83554688 58.77390625 -133.125 58.01953125 C-107.43617312 31.54270354 -71.07875844 12.34764416 -35.1875 4.6640625 C-23.52394931 2.32279462 -11.92052343 0.12704773 0 0 Z " fill="#F8F8F9" transform="translate(239.21484375,43.76171875)"/>
<path d="M0 0 C1.14695343 -0.0146228 1.14695343 -0.0146228 2.31707764 -0.02954102 C20.16457588 -0.210033 37.28786712 0.2971318 54.78515625 4.23828125 C55.63513184 4.42551758 56.48510742 4.61275391 57.36083984 4.80566406 C75.42589437 8.89386675 92.50439364 15.44811814 108.78515625 24.23828125 C109.38666504 24.55909668 109.98817383 24.87991211 110.60791016 25.21044922 C124.97215562 32.92334786 137.5406831 42.53844597 149.78515625 53.23828125 C151.05552734 54.32302734 151.05552734 54.32302734 152.3515625 55.4296875 C157.29746412 59.70609313 161.58806219 64.23568428 165.78515625 69.23828125 C166.61917969 70.18445313 167.45320313 71.130625 168.3125 72.10546875 C185.01021557 91.1503721 199.40247411 114.88918675 206.78515625 139.23828125 C206.78515625 139.89828125 206.78515625 140.55828125 206.78515625 141.23828125 C222.62515625 141.23828125 238.46515625 141.23828125 254.78515625 141.23828125 C249.85119583 156.04016251 238.21614677 168.17572173 226.07421875 177.6171875 C223.70304239 179.29643356 221.33135297 180.83744727 218.78515625 182.23828125 C218.12515625 182.23828125 217.46515625 182.23828125 216.78515625 182.23828125 C216.85734375 182.90988281 216.92953125 183.58148438 217.00390625 184.2734375 C220.92376514 226.46636307 212.87393176 267.92627624 192.78515625 305.23828125 C192.1715625 306.40488281 191.55796875 307.57148438 190.92578125 308.7734375 C178.2984671 331.91481695 159.57300679 353.15504952 138.78515625 369.23828125 C138.26566406 369.65013672 137.74617188 370.06199219 137.2109375 370.48632812 C107.56823452 393.89772656 72.0178875 407.24410108 34.78515625 412.23828125 C33.81707031 412.36976563 32.84898437 412.50125 31.8515625 412.63671875 C-9.41587282 417.06892516 -50.84107567 407.59829635 -87.45458984 388.71191406 C-101.65048189 381.13307058 -114.105536 371.78192789 -126.21484375 361.23828125 C-126.73965332 360.78791504 -127.26446289 360.33754883 -127.80517578 359.87353516 C-133.44827702 355.02760063 -138.45210161 349.93988016 -143.21484375 344.23828125 C-144.05917969 343.27019531 -144.90351563 342.30210937 -145.7734375 341.3046875 C-168.63273737 315.01789901 -184.11245692 283.58302413 -191.46484375 249.55078125 C-191.61606689 248.85194824 -191.76729004 248.15311523 -191.9230957 247.43310547 C-194.57423068 234.28670942 -195.52772821 221.35448566 -195.4206543 207.97998047 C-195.40208857 205.580298 -195.40014769 203.18099776 -195.40039062 200.78125 C-195.39548379 199.2330696 -195.38965916 197.68489178 -195.3828125 196.13671875 C-195.38169968 195.43042328 -195.38058685 194.72412781 -195.37944031 193.99642944 C-195.34110914 189.9790691 -194.9848862 186.18105223 -194.21484375 182.23828125 C-194.93285156 181.98046875 -195.65085938 181.72265625 -196.390625 181.45703125 C-208.42076876 176.26559992 -218.52364669 165.43132684 -225.67578125 154.703125 C-232.21484375 144.23066704 -232.21484375 144.23066704 -232.21484375 141.23828125 C-216.70484375 140.90828125 -201.19484375 140.57828125 -185.21484375 140.23828125 C-182.57484375 133.63828125 -179.93484375 127.03828125 -177.21484375 120.23828125 C-175.5011692 116.57670606 -173.80964153 113.03400338 -171.90234375 109.48828125 C-171.44359863 108.62541504 -170.98485352 107.76254883 -170.51220703 106.87353516 C-161.09352324 89.51455138 -148.71097583 74.55906521 -135.21484375 60.23828125 C-134.52519531 59.50609375 -133.83554688 58.77390625 -133.125 58.01953125 C-107.43617312 31.54270354 -71.07875844 12.34764416 -35.1875 4.6640625 C-23.52394931 2.32279462 -11.92052343 0.12704773 0 0 Z M-51.21484375 29.23828125 C-52.40078125 29.61597656 -53.58671875 29.99367188 -54.80859375 30.3828125 C-71.42036815 36.21879114 -87.38659513 45.3929571 -101.21484375 56.23828125 C-102.11074219 56.92535156 -103.00664062 57.61242187 -103.9296875 58.3203125 C-109.94044722 63.01592911 -115.63255744 68.04352556 -121.21484375 73.23828125 C-122.21451172 74.15673828 -122.21451172 74.15673828 -123.234375 75.09375 C-143.79102414 94.72932728 -160.63505285 122.97762975 -168.21484375 150.23828125 C-168.21484375 151.22828125 -168.21484375 152.21828125 -168.21484375 153.23828125 C-181.41484375 153.23828125 -194.61484375 153.23828125 -208.21484375 153.23828125 C-205.36972557 160.35107669 -200.57483997 165.8948692 -194.21484375 170.23828125 C-188.84351872 173.24751756 -184.21167013 175.40489502 -177.96484375 175.30078125 C-176.72734375 175.28015625 -175.48984375 175.25953125 -174.21484375 175.23828125 C-174.54484375 178.20828125 -174.87484375 181.17828125 -175.21484375 184.23828125 C-177.85484375 184.23828125 -180.49484375 184.23828125 -183.21484375 184.23828125 C-181.25997827 188.39046723 -181.25997827 188.39046723 -178.63476562 192.12573242 C-176.89909486 194.70805002 -176.83348742 196.19913568 -176.80859375 199.2890625 C-176.78885498 200.28623291 -176.76911621 201.28340332 -176.7487793 202.31079102 C-176.73758057 203.37998779 -176.72638184 204.44918457 -176.71484375 205.55078125 C-175.7183271 244.17352085 -165.45297526 281.39364618 -143.09765625 313.27734375 C-139.36327934 318.46603246 -135.43258134 323.4300604 -131.21484375 328.23828125 C-130.46460938 329.09808594 -129.714375 329.95789063 -128.94140625 330.84375 C-126.72969836 333.3385263 -124.48214851 335.79403619 -122.21484375 338.23828125 C-121.35052734 339.20121094 -121.35052734 339.20121094 -120.46875 340.18359375 C-113.58524214 347.51169343 -105.29628374 353.31779213 -97.21484375 359.23828125 C-96.60785645 359.68993652 -96.00086914 360.1415918 -95.37548828 360.60693359 C-78.41541375 373.11625298 -58.54306083 381.90658617 -38.21484375 387.23828125 C-37.48861816 387.43357422 -36.76239258 387.62886719 -36.01416016 387.83007812 C-7.73695214 395.33361244 22.26275559 395.6681542 50.78515625 389.23828125 C51.51992188 389.07279785 52.2546875 388.90731445 53.01171875 388.73681641 C57.32277242 387.73179178 61.55260303 386.53088648 65.78515625 385.23828125 C66.91824219 384.91601562 68.05132812 384.59375 69.21875 384.26171875 C86.97789223 378.85422528 103.86879456 370.25599868 118.78515625 359.23828125 C119.34348145 358.83254883 119.90180664 358.42681641 120.47705078 358.00878906 C128.76277115 351.96057292 136.35691592 345.30336317 143.78515625 338.23828125 C144.41808594 337.65820312 145.05101562 337.078125 145.703125 336.48046875 C165.46062794 317.80235433 179.4711635 291.72271451 188.08740234 266.27294922 C188.68055894 264.54328965 189.31631346 262.82833239 189.9609375 261.1171875 C195.31974081 246.5304835 197.74017071 230.17201048 197.890625 214.671875 C197.90544922 213.52654297 197.92027344 212.38121094 197.93554688 211.20117188 C197.96032626 208.84712986 197.96547084 206.49280088 197.95117188 204.13867188 C198.06205265 198.17463041 198.42808161 194.03157365 201.8359375 189.0234375 C202.38548096 188.33258057 202.93502441 187.64172363 203.5012207 186.92993164 C203.92491943 186.37168701 204.34861816 185.81344238 204.78515625 185.23828125 C204.78515625 184.57828125 204.78515625 183.91828125 204.78515625 183.23828125 C202.14515625 183.23828125 199.50515625 183.23828125 196.78515625 183.23828125 C196.45515625 180.59828125 196.12515625 177.95828125 195.78515625 175.23828125 C196.75453125 175.30015625 197.72390625 175.36203125 198.72265625 175.42578125 C205.76450485 175.3973867 212.07689221 172.52848816 217.8671875 168.69140625 C222.72521924 165.01077935 227.09723141 160.77224416 229.78515625 155.23828125 C229.78515625 154.57828125 229.78515625 153.91828125 229.78515625 153.23828125 C216.58515625 153.23828125 203.38515625 153.23828125 189.78515625 153.23828125 C189.12515625 150.26828125 188.46515625 147.29828125 187.78515625 144.23828125 C187.02592737 141.81306193 187.02592737 141.81306193 186.15625 139.80078125 C185.84848633 139.06005371 185.54072266 138.31932617 185.22363281 137.55615234 C184.89331055 136.79125488 184.56298828 136.02635742 184.22265625 135.23828125 C183.87041992 134.4179541 183.51818359 133.59762695 183.15527344 132.75244141 C167.79979805 97.59719665 143.13432772 68.48657764 110.83203125 47.71875 C98.47417743 40.01193184 85.58782848 33.84889904 71.78515625 29.23828125 C70.68945312 28.8721875 69.59375 28.50609375 68.46484375 28.12890625 C28.60953869 15.39871053 -11.56639562 16.27096077 -51.21484375 29.23828125 Z " fill="#030303" transform="translate(239.21484375,43.76171875)"/>
<path d="M0 0 C0.83773956 0.16076523 1.67547913 0.32153046 2.53860474 0.48716736 C6.19555139 1.02897246 9.68602607 1.16055741 13.38232422 1.20532227 C14.09521103 1.21522186 14.80809784 1.22512146 15.54258728 1.23532104 C17.87992118 1.26670405 20.21727534 1.29160085 22.5546875 1.31640625 C24.18279525 1.33699586 25.81089789 1.35799284 27.43899536 1.37937927 C31.7099594 1.43439277 35.98097001 1.48389283 40.25201416 1.53222656 C44.61596793 1.58259354 48.97985464 1.63820004 53.34375 1.69335938 C61.89577651 1.80068723 70.44785938 1.9021878 79 2 C79.46470703 3.09119141 79.92941406 4.18238281 80.40820312 5.30664062 C81.03230323 6.75661755 81.65666614 8.20648139 82.28125 9.65625 C82.58579102 10.37329102 82.89033203 11.09033203 83.20410156 11.82910156 C85.78194033 17.78950125 88.93120888 22.92544029 93 28 C93.54269531 28.70511719 94.08539063 29.41023438 94.64453125 30.13671875 C102.84146578 40.21491695 115.20155355 47.0805611 127.42578125 51.13671875 C142.84175007 54.86013854 159.1222938 53.98438937 174.07421875 48.96875 C181.62707748 46.10620687 187.70368114 42.00502294 194 37 C194.63550781 36.54109375 195.27101563 36.0821875 195.92578125 35.609375 C205.02122952 28.6675616 210.85069513 17.39825798 215 7 C215.66 5.35 216.32 3.7 217 2 C242.74 1.67 268.48 1.34 295 1 C291.73035771 27.15713831 278.41793854 51.43455756 261.30859375 71.12109375 C246.2878007 88.07754217 228.70154822 100.83061797 208 110 C207.29939453 110.31308105 206.59878906 110.62616211 205.87695312 110.94873047 C194.2096167 116.06694881 182.54283908 118.92233497 170 121 C168.60322021 121.26151855 168.60322021 121.26151855 167.17822266 121.52832031 C138.46080365 125.79026942 109.32288732 120.13459257 83.13671875 108.27734375 C75.28523023 104.51034543 68.07058762 100.07157332 61 95 C59.97390625 94.27296875 58.9478125 93.5459375 57.890625 92.796875 C43.66210307 82.31635397 31.69761234 69.76530111 22 55 C21.56848633 54.34837891 21.13697266 53.69675781 20.69238281 53.02539062 C10.08918439 36.75292056 3.78094618 18.97935482 0 0 Z " fill="#004AAD" transform="translate(102,278)"/>
<path d="M0 0 C11.63250095 6.6269847 22.1855469 14.58465972 31.5 24.1875 C32.28375 24.950625 33.0675 25.71375 33.875 26.5 C49.01368899 41.99913397 59.99035923 58.90765792 67.5 79.1875 C66.84346939 79.19336624 66.18693878 79.19923248 65.51051331 79.20527649 C58.64776343 79.2694476 51.78547223 79.35392789 44.9230957 79.44995117 C42.36554022 79.48310736 39.8079132 79.51116795 37.25024414 79.53393555 C33.56365614 79.56765215 29.87771821 79.61997855 26.19140625 79.67578125 C25.05667374 79.68217117 23.92194122 79.6885611 22.75282288 79.69514465 C16.26980111 79.81391651 10.40390724 80.32583835 4.5 83.1875 C2.35447503 84.73561696 0.46903872 86.41056262 -1.5 88.1875 C-2.16 88.1875 -2.82 88.1875 -3.5 88.1875 C-3.74492187 88.73921875 -3.98984375 89.2909375 -4.2421875 89.859375 C-5.75738114 92.66389491 -7.61084126 94.96853123 -9.625 97.4375 C-10.34945312 98.32953125 -11.07390625 99.2215625 -11.8203125 100.140625 C-12.37460937 100.81609375 -12.92890625 101.4915625 -13.5 102.1875 C-16.24409005 99.52411848 -18.75662817 96.8767736 -21.125 93.875 C-29.54939704 83.98922796 -42.10513655 77.73670653 -54.26953125 73.73046875 C-61.05565423 72.07850536 -67.80766742 71.97370512 -74.75 71.9375 C-75.72324219 71.916875 -76.69648438 71.89625 -77.69921875 71.875 C-87.74852413 71.82161724 -96.58547685 74.24538037 -105.5 78.8125 C-106.51682861 79.32864868 -106.51682861 79.32864868 -107.55419922 79.85522461 C-116.01686652 84.31089406 -123.32922237 90.16706726 -129.28125 97.6796875 C-130.58953971 99.2982767 -132.00777553 100.73865415 -133.5 102.1875 C-134.21285156 101.31867188 -134.92570312 100.44984375 -135.66015625 99.5546875 C-144.18425702 88.47098253 -144.18425702 88.47098253 -155.92919922 81.57104492 C-161.97449685 79.84829918 -167.81723401 79.71185309 -174.0703125 79.67578125 C-175.23255341 79.65783005 -176.39479431 79.63987885 -177.59225464 79.62138367 C-181.26980056 79.56761295 -184.94721919 79.53349132 -188.625 79.5 C-191.13283009 79.46679765 -193.64064345 79.43230533 -196.1484375 79.39648438 C-202.26551074 79.31190572 -208.38260116 79.24341641 -214.5 79.1875 C-214.04294456 77.77200972 -213.58196081 76.35778759 -213.11938477 74.9440918 C-212.86310806 74.15640915 -212.60683136 73.3687265 -212.3427887 72.55717468 C-211.02911191 68.86350078 -209.28889731 65.44892136 -207.4375 62 C-207.04755859 61.27022949 -206.65761719 60.54045898 -206.25585938 59.78857422 C-202.25623705 52.47765886 -197.59244128 45.77209773 -192.5 39.1875 C-191.73558594 38.19878906 -190.97117188 37.21007812 -190.18359375 36.19140625 C-172.22335406 13.67082743 -147.80612583 -2.27209353 -120.6875 -11.6875 C-113.7085971 -13.86887567 -106.68409337 -15.47436852 -99.5 -16.8125 C-98.54738281 -17.01875 -97.59476562 -17.225 -96.61328125 -17.4375 C-63.98140483 -23.71118519 -28.82036385 -15.69000785 0 0 Z " fill="#014BAD" transform="translate(323.5,117.8125)"/>
<path d="M0 0 C0.66 0 1.32 0 2 0 C2 0.66 2 1.32 2 2 C2.56589844 2.27714844 3.13179688 2.55429688 3.71484375 2.83984375 C5.21018914 3.5990191 6.68390037 4.40281104 8.12890625 5.25390625 C17.05082276 10.05140549 26.10472509 9.88720412 36 10 C36 12.97 36 15.94 36 19 C30.06 19 24.12 19 18 19 C22.09111736 25.17842214 25.84053531 30.77147861 32 35 C33.71509766 35.68835938 33.71509766 35.68835938 35.46484375 36.390625 C37.31005859 37.43310547 37.31005859 37.43310547 39 39 C40.90949366 42.9714098 41.9546331 47.12088632 43.0625 51.375 C43.73974491 53.74884145 44.42199585 56.12126072 45.109375 58.4921875 C45.43357422 59.62624023 45.75777344 60.76029297 46.09179688 61.92871094 C53.22258212 86.04303309 70.15277788 108.60648157 89 125 C94.76226183 129.67376209 100.81077634 133.91439687 107 138 C107.90419678 138.59917236 107.90419678 138.59917236 108.82666016 139.21044922 C123.55545882 148.76483866 140.89126432 154.48068777 158 158 C158.76948975 158.17515137 159.53897949 158.35030273 160.33178711 158.53076172 C168.63655675 160.27267336 176.8678842 160.39914614 185.3125 160.375 C186.43558563 160.37368576 186.43558563 160.37368576 187.58135986 160.37234497 C219.60640587 160.24912252 248.58819337 150.30178135 275.05957031 132.38574219 C280.72390051 128.34060653 285.88047667 123.7023126 291 119 C291.72316406 118.35933594 292.44632812 117.71867187 293.19140625 117.05859375 C312.84244705 98.72035735 324.32077141 73.85647519 331.921875 48.55859375 C332.27765625 47.38425781 332.6334375 46.20992188 333 45 C333.42152344 43.37191406 333.42152344 43.37191406 333.8515625 41.7109375 C335 39 335 39 337.1015625 37.41796875 C337.93429687 37.01191406 338.76703125 36.60585938 339.625 36.1875 C347.14025329 32.05465448 351.63461613 26.27563978 356 19 C350.06 19 344.12 19 338 19 C338 16.36 338 13.72 338 11 C339.74023438 10.87044922 339.74023438 10.87044922 341.515625 10.73828125 C351.15659523 9.91126257 359.26992836 8.46521697 368 4 C368.76570313 3.6184375 369.53140625 3.236875 370.3203125 2.84375 C370.87460937 2.5653125 371.42890625 2.286875 372 2 C372 1.34 372 0.68 372 0 C372.66 0 373.32 0 374 0 C374.8913076 38.44506774 367.61643907 75.89665574 346.97265625 108.97265625 C338.76385296 121.66817835 329.33505038 133.0072646 319 144 C318.41734375 144.63679687 317.8346875 145.27359375 317.234375 145.9296875 C298.87075824 165.3135052 273.08078663 179.60431295 248 188 C246.9275 188.36609375 245.855 188.7321875 244.75 189.109375 C238.59509071 191.10972052 232.36895581 192.69104639 226.0625 194.125 C225.37172363 194.28371582 224.68094727 194.44243164 223.96923828 194.60595703 C211.85131397 197.2582346 199.89734453 198.38400016 187.5 198.3125 C186.80479248 198.31001251 186.10958496 198.30752502 185.39331055 198.30496216 C150.02671319 198.11055696 114.63669173 188.22237531 85.0390625 168.41796875 C81.61603389 166.04108025 78.29973976 163.54503435 75 161 C74.09894531 160.31035156 73.19789063 159.62070312 72.26953125 158.91015625 C66.26832157 154.21153472 60.57825388 149.1910032 55 144 C54.33355469 143.38769531 53.66710937 142.77539062 52.98046875 142.14453125 C28.053526 118.33447799 11.31245525 84.385697 3.7734375 51.1171875 C0.44443017 34.06555451 -0.44925842 17.34598295 0 0 Z " fill="#FCFCFC" transform="translate(63,239)"/>
<path d="M0 0 C1.07362793 0.20882812 1.07362793 0.20882812 2.16894531 0.421875 C27.10765807 5.31226261 51.53012224 15.97304801 72 31 C72.56122559 31.40718262 73.12245117 31.81436523 73.70068359 32.23388672 C81.98292316 38.28066515 89.57445449 44.93748116 97 52 C97.94939453 52.87011719 97.94939453 52.87011719 98.91796875 53.7578125 C119.46020137 73.17778538 134.75599659 101.27029611 143 128 C143 128.99 143 129.98 143 131 C130.46 131 117.92 131 105 131 C100 121 100 121 98.296875 117.41796875 C91.94869483 104.16053188 83.61661542 91.25875198 73 81 C72.34 80.34 71.68 79.68 71 79 C71 78.34 71 77.68 71 77 C70.40574219 76.73646729 69.81148438 76.47293457 69.19921875 76.20141602 C66.90838108 74.9499493 65.56956727 73.69032363 63.8125 71.77734375 C59.91273436 67.76867508 55.63292115 64.67175107 51 61.5625 C50.16186768 60.99829346 49.32373535 60.43408691 48.46020508 59.8527832 C22.843225 42.83573706 -6.136473 33.6241338 -37.0625 33.5 C-47.55208327 33.64145106 -57.75263242 34.77427366 -68 37 C-68.66676758 37.14453613 -69.33353516 37.28907227 -70.02050781 37.43798828 C-99.13488955 44.00071587 -125.99459682 59.85453173 -146.43261719 81.51855469 C-159.65657387 95.9667851 -169.31308098 113.06385562 -177 131 C-189.54 131 -202.08 131 -215 131 C-208.57938545 102.10723451 -191.76986503 76.61190365 -172 55 C-171.14148438 54.05769531 -170.28296875 53.11539063 -169.3984375 52.14453125 C-161.7035657 44.08932558 -152.98657014 37.5366449 -144 31 C-143.40799805 30.5580127 -142.81599609 30.11602539 -142.20605469 29.66064453 C-125.35388963 17.13644409 -105.36740771 7.93755338 -85 3 C-83.27050677 2.45937693 -81.54131185 1.91779807 -79.8125 1.375 C-54.45176058 -5.22935922 -25.5826181 -5.34459018 0 0 Z " fill="#FDFDFD" transform="translate(286,66)"/>
<path d="M0 0 C1.2884935 -0.00029205 2.576987 -0.00058411 3.90452576 -0.00088501 C7.42058454 -0.00145657 10.93650562 0.01026572 14.45253253 0.02426291 C18.13339198 0.03680317 21.81425493 0.03794336 25.49513245 0.04031372 C32.45770879 0.04651883 39.420222 0.06291647 46.3827706 0.0830127 C54.31264014 0.10540193 62.24251277 0.11637272 70.17240608 0.12640357 C86.47768588 0.1472836 102.78290225 0.18244065 119.08813477 0.22705078 C116.657554 6.60280779 112.63035226 10.88038848 107.65063477 15.47705078 C101.43607609 19.72113963 95.8596495 22.16522267 88.27563477 22.28955078 C87.22375977 22.26892578 86.17188477 22.24830078 85.08813477 22.22705078 C85.58313477 26.18705078 85.58313477 26.18705078 86.08813477 30.22705078 C88.72813477 30.22705078 91.36813477 30.22705078 94.08813477 30.22705078 C92.59141935 34.71719702 90.25445135 38.70553842 87.08813477 42.22705078 C86.42813477 42.22705078 85.76813477 42.22705078 85.08813477 42.22705078 C85.08813477 42.88705078 85.08813477 43.54705078 85.08813477 44.22705078 C77.97691277 49.3988486 70.83806267 52.36640214 62.08813477 53.22705078 C58.41965315 53.3014119 54.75672164 53.28675654 51.08813477 53.22705078 C51.08813477 55.86705078 51.08813477 58.50705078 51.08813477 61.22705078 C57.02813477 61.22705078 62.96813477 61.22705078 69.08813477 61.22705078 C66.23565375 68.35825332 61.64444935 73.5718114 55.48266602 78.17236328 C48.54995115 82.51448727 42.87773592 83.35471445 34.70581055 83.34057617 C33.63648033 83.34079521 33.63648033 83.34079521 32.54554749 83.34101868 C30.20814892 83.3403265 27.87083177 83.3325669 25.53344727 83.32470703 C23.90534509 83.32284038 22.27724235 83.32141764 20.6491394 83.32041931 C16.37811718 83.3166136 12.10712932 83.30680004 7.83612061 83.29571533 C3.47221339 83.28545926 -0.89169942 83.28091272 -5.25561523 83.27587891 C-13.80771429 83.26517593 -22.35978548 83.24812302 -30.91186523 83.22705078 C-30.77138763 82.48460617 -30.63091003 81.74216156 -30.48617554 80.97721863 C-30.30358185 79.99642838 -30.12098816 79.01563812 -29.93286133 78.00512695 C-29.75113373 77.03580734 -29.56940613 76.06648773 -29.38217163 75.0677948 C-27.35748938 62.83831201 -28.42118611 49.8058997 -32.91186523 38.22705078 C-34.60219466 34.64758403 -36.54457524 31.26916319 -38.61889648 27.89892578 C-39.91186523 25.22705078 -39.91186523 25.22705078 -39.85717773 23.23095703 C-36.02646566 15.11048061 -29.83076401 8.51559844 -22.46655273 3.53173828 C-15.10830594 -0.22614311 -8.11547761 -0.04826175 0 0 Z " fill="#A99F62" transform="translate(349.911865234375,196.77294921875)"/>
<path d="M0 0 C16.90754951 -0.0702122 33.81505324 -0.12304782 50.72271538 -0.15543652 C58.57398235 -0.17087769 66.42515852 -0.19191434 74.27636719 -0.22631836 C81.12284475 -0.25630523 87.96925651 -0.27559497 94.81579792 -0.28226548 C98.43795937 -0.28616209 102.05993265 -0.2952616 105.68203354 -0.31719017 C109.73455758 -0.3415235 113.78675852 -0.34196406 117.83935547 -0.34057617 C119.62284645 -0.35675491 119.62284645 -0.35675491 121.44236755 -0.3732605 C129.5195356 -0.34341269 137.01383169 0.3587584 143.8828125 4.91015625 C155.68930493 16.24356623 155.68930493 16.24356623 159 22 C158.79170288 25.55541633 156.74826209 28.63269071 155.125 31.75 C152.73895593 36.43031722 150.71719844 41.03920449 149 46 C144.55272152 41.80398019 140.88525446 37.17275921 137.1875 32.3125 C136.59001953 31.54099609 135.99253906 30.76949219 135.37695312 29.97460938 C134.53100586 28.86762695 134.53100586 28.86762695 133.66796875 27.73828125 C133.15516357 27.06837158 132.6423584 26.39846191 132.11401367 25.70825195 C131 24 131 24 131 22 C111.2 22 91.4 22 71 22 C70.67 24.97 70.34 27.94 70 31 C70.69553986 30.95780838 71.39107971 30.91561676 72.10769653 30.87214661 C78.72376409 30.48844179 85.33666039 30.2007938 91.96141243 30.01556873 C95.36702428 29.91709644 98.76332905 29.7842471 102.16357422 29.56665039 C120.31902297 28.48985826 120.31902297 28.48985826 128 31 C134.51233424 35.6275302 138.95955651 42.6812337 142 50 C142 50.66 142 51.32 142 52 C130.08170632 52.13948218 118.16360922 52.24586513 106.24466324 52.31087303 C100.70920068 52.34208564 95.17429963 52.38437379 89.63916016 52.45263672 C84.28986908 52.51818915 78.94111553 52.55378164 73.59145355 52.56926346 C71.55821022 52.58028565 69.52499381 52.60180875 67.49198151 52.63438034 C48.27538262 52.9298015 48.27538262 52.9298015 39.16156006 47.48721313 C38.44824524 46.9964328 37.73493042 46.50565247 37 46 C36.01 45.34 35.02 44.68 34 44 C34 43.34 34 42.68 34 42 C33.39671875 41.75378906 32.7934375 41.50757813 32.171875 41.25390625 C29.62647816 39.7843516 28.72867072 38.45215298 27.25 35.9375 C26.82203125 35.22464844 26.3940625 34.51179688 25.953125 33.77734375 C25 32 25 32 25 31 C27.64 31 30.28 31 33 31 C33.33 28.03 33.66 25.06 34 22 C32.88625 22.0825 31.7725 22.165 30.625 22.25 C24.02678271 22.25 18.44707234 19.39147251 12.8125 16.1875 C7.70514701 12.21511434 2.86576269 7.90009967 0 2 C0 1.34 0 0.68 0 0 Z " fill="#ADA260" transform="translate(31,197)"/>
<path d="M0 0 C1.2884935 -0.00029205 2.576987 -0.00058411 3.90452576 -0.00088501 C7.42058454 -0.00145657 10.93650562 0.01026572 14.45253253 0.02426291 C18.13339198 0.03680317 21.81425493 0.03794336 25.49513245 0.04031372 C32.45770879 0.04651883 39.420222 0.06291647 46.3827706 0.0830127 C54.31264014 0.10540193 62.24251277 0.11637272 70.17240608 0.12640357 C86.47768588 0.1472836 102.78290225 0.18244065 119.08813477 0.22705078 C116.657554 6.60280779 112.63035226 10.88038848 107.65063477 15.47705078 C101.43607609 19.72113963 95.8596495 22.16522267 88.27563477 22.28955078 C87.22375977 22.26892578 86.17188477 22.24830078 85.08813477 22.22705078 C85.08813477 25.19705078 85.08813477 28.16705078 85.08813477 31.22705078 C73.20813477 31.22705078 61.32813477 31.22705078 49.08813477 31.22705078 C48.09813477 26.77205078 48.09813477 26.77205078 47.08813477 22.22705078 C27.61813477 22.22705078 8.14813477 22.22705078 -11.91186523 22.22705078 C-12.57186523 23.54705078 -13.23186523 24.86705078 -13.91186523 26.22705078 C-16.12625375 29.52667054 -18.49776724 32.71171711 -20.84936523 35.91455078 C-21.48293945 36.79433594 -22.11651367 37.67412109 -22.76928711 38.58056641 C-23.38223633 39.41652344 -23.99518555 40.25248047 -24.62670898 41.11376953 C-25.18479248 41.87906982 -25.74287598 42.64437012 -26.31787109 43.43286133 C-27.91186523 45.22705078 -27.91186523 45.22705078 -30.91186523 46.22705078 C-31.05881836 45.63279297 -31.20577148 45.03853516 -31.35717773 44.42626953 C-33.03187649 38.2375839 -35.45546244 33.13917535 -38.80249023 27.67236328 C-39.91186523 25.22705078 -39.91186523 25.22705078 -39.82983398 23.27001953 C-36.16612283 15.11631344 -29.77560482 8.47826848 -22.46655273 3.53173828 C-15.10830594 -0.22614311 -8.11547761 -0.04826175 0 0 Z " fill="#ADA261" transform="translate(349.911865234375,196.77294921875)"/>
<path d="M0 0 C7.57832859 -0.44371875 15.15529229 -0.77947544 22.74371529 -0.98443127 C26.27022178 -1.08293031 29.78775112 -1.21585746 33.30908203 -1.43334961 C51.92239415 -2.55348537 51.92239415 -2.55348537 60 0 C66.07156968 4.23838117 69.59105283 10.32296016 72.85398865 16.83558655 C74.26065814 19.49229179 76.12236521 21.66384397 78 24 C77.76171875 26.63671875 77.76171875 26.63671875 77 30 C76.80370445 33.60316285 76.81492628 37.20461778 76.8125 40.8125 C76.80025391 41.75931641 76.78800781 42.70613281 76.77539062 43.68164062 C76.77345703 44.61814453 76.77152344 45.55464844 76.76953125 46.51953125 C76.76542236 47.35589111 76.76131348 48.19225098 76.75708008 49.05395508 C77.09347577 53.13364028 78.03948923 57.02712867 79 61 C69.6374562 61.06972303 60.27500273 61.12292398 50.91225529 61.15543652 C46.56404974 61.17104635 42.21602274 61.19219831 37.86791992 61.22631836 C33.66632283 61.25907983 29.46489673 61.27688818 25.26318169 61.28463173 C23.66571807 61.29014527 22.06826307 61.30091142 20.47087288 61.31719017 C10.29809015 61.41667133 2.02253369 60.80174355 -7.0625 55.875 C-11.81507977 52.73201138 -15.65255522 48.58898533 -19 44 C-19.66 42.35 -20.32 40.7 -21 39 C-15.06 39 -9.12 39 -3 39 C-3 36.03 -3 33.06 -3 30 C21.42 30 45.84 30 71 30 C64.17093643 20.37072769 64.17093643 20.37072769 57 11 C57 10.34 57 9.68 57 9 C37.86 9 18.72 9 -1 9 C-0.67 6.03 -0.34 3.06 0 0 Z " fill="#ADA261" transform="translate(102,219)"/>
<path d="M0 0 C11.88 0 23.76 0 36 0 C35.67 2.97 35.34 5.94 35 9 C36.04330978 8.93671257 36.04330978 8.93671257 37.10769653 8.87214661 C43.72376409 8.48844179 50.33666039 8.2007938 56.96141243 8.01556873 C60.36702428 7.91709644 63.76332905 7.7842471 67.16357422 7.56665039 C85.31902297 6.48985826 85.31902297 6.48985826 93 9 C99.51233424 13.6275302 103.95955651 20.6812337 107 28 C107 28.66 107 29.32 107 30 C95.08170632 30.13948218 83.16360922 30.24586513 71.24466324 30.31087303 C65.70920068 30.34208564 60.17429963 30.38437379 54.63916016 30.45263672 C49.28986908 30.51818915 43.94111553 30.55378164 38.59145355 30.56926346 C36.55821022 30.58028565 34.52499381 30.60180875 32.49198151 30.63438034 C13.27538262 30.9298015 13.27538262 30.9298015 4.16156006 25.48721313 C3.44824524 24.9964328 2.73493042 24.50565247 2 24 C1.01 23.34 0.02 22.68 -1 22 C-1 21.34 -1 20.68 -1 20 C-1.60328125 19.75378906 -2.2065625 19.50757813 -2.828125 19.25390625 C-5.37352184 17.7843516 -6.27132928 16.45215298 -7.75 13.9375 C-8.17796875 13.22464844 -8.6059375 12.51179687 -9.046875 11.77734375 C-10 10 -10 10 -10 9 C-7.36 9 -4.72 9 -2 9 C-1.34 6.03 -0.68 3.06 0 0 Z " fill="#AFA361" transform="translate(66,219)"/>
<path d="M0 0 C3.96 0 7.92 0 12 0 C12 0.33 12 0.66 12 1 C8.37 1 4.74 1 1 1 C1 3.64 1 6.28 1 9 C6.94 9 12.88 9 19 9 C16.14751899 16.13120253 11.55631459 21.34476062 5.39453125 25.9453125 C-1.53818362 30.28743649 -7.21039885 31.12766367 -15.38232422 31.11352539 C-16.45165443 31.11374443 -16.45165443 31.11374443 -17.54258728 31.1139679 C-19.87998585 31.11327572 -22.21730299 31.10551612 -24.5546875 31.09765625 C-26.18278968 31.0957896 -27.81089242 31.09436686 -29.43899536 31.09336853 C-33.71001759 31.08956282 -37.98100545 31.07974926 -42.25201416 31.06866455 C-46.61592138 31.05840848 -50.97983419 31.05386194 -55.34375 31.04882812 C-63.89584905 31.03812515 -72.44792024 31.02107224 -81 31 C-80.80083984 30.00033203 -80.80083984 30.00033203 -80.59765625 28.98046875 C-80.42105469 28.05878906 -80.24445313 27.13710938 -80.0625 26.1875 C-79.80146484 24.84751953 -79.80146484 24.84751953 -79.53515625 23.48046875 C-78.79749472 18.68297659 -78.43944894 13.83393837 -78 9 C-52.26 9 -26.52 9 0 9 C0 6.03 0 3.06 0 0 Z " fill="#ADA262" transform="translate(400,249)"/>
<path d="M0 0 C6.48802828 -0.02576632 12.97604296 -0.0430374 19.46411133 -0.05493164 C21.66235853 -0.05990034 23.86060254 -0.06667759 26.05883789 -0.07543945 C39.74374453 -0.12854226 53.34297495 0.09578404 67 1 C60.22746058 14.98646398 52.66803427 28.48719088 45 42 C35.494692 41.09936902 27.14182911 36.33285466 19.67578125 30.515625 C11.1263538 23.35233684 3.55866874 13.67600621 0 3 C0 2.01 0 1.02 0 0 Z " fill="#020202" transform="translate(190,280)"/>
<path d="M0 0 C14.85 0 29.7 0 45 0 C46.69561182 4.23902955 47.25475166 5.96544664 47.265625 10.23828125 C47.26949219 11.71651367 47.26949219 11.71651367 47.2734375 13.22460938 C47.26570313 14.24361328 47.25796875 15.26261719 47.25 16.3125 C47.26160156 17.82360352 47.26160156 17.82360352 47.2734375 19.36523438 C47.23858482 32.73995124 42.73922418 44.31102045 35.4296875 55.453125 C34.95789063 55.96359375 34.48609375 56.4740625 34 57 C33.01 57 32.02 57 31 57 C30.63874023 56.32235596 30.27748047 55.64471191 29.90527344 54.9465332 C23.10475636 42.20791459 16.26952351 29.50636848 8.99707031 17.02856445 C5.74967029 11.42973798 2.90910394 5.81820788 0 0 Z " fill="#040404" transform="translate(266,243)"/>
<path d="M0 0 C0.66 0 1.32 0 2 0 C2.85677083 1.52994792 3.71354167 3.05989583 4.5703125 4.58984375 C5.13065186 5.59039795 5.69099121 6.59095215 6.26831055 7.62182617 C7.51734925 9.852358 8.76620675 12.08299131 10.01489258 14.3137207 C13.31953276 20.21672577 16.62711757 26.11803105 19.94140625 32.015625 C20.56966309 33.13461182 21.19791992 34.25359863 21.84521484 35.40649414 C23.05145732 37.55474389 24.25877313 39.70239141 25.46728516 41.84936523 C26.01819824 42.83106689 26.56911133 43.81276855 27.13671875 44.82421875 C27.61842529 45.68104248 28.10013184 46.53786621 28.59643555 47.4206543 C30.13287305 50.24418225 31.56243607 53.12487214 33 56 C17.49 56 1.98 56 -14 56 C-17.42378444 49.15243112 -15.55562452 37.46612815 -15 30 C-13.46363505 20.26380221 -8.72427426 11.88105059 -3 4 C-2.47664062 3.24074219 -1.95328125 2.48148438 -1.4140625 1.69921875 C-0.94742188 1.13847656 -0.48078125 0.57773438 0 0 Z " fill="#020202" transform="translate(202,218)"/>
<path d="M0 0 C-1.37300618 3.65709179 -3.02306228 6.95590808 -4.984375 10.33203125 C-5.8830127 11.88494873 -5.8830127 11.88494873 -6.79980469 13.46923828 C-7.44336914 14.57251465 -8.08693359 15.67579102 -8.75 16.8125 C-9.75935926 18.54679848 -10.76871602 20.28109842 -11.77789307 22.01550293 C-12.47120827 23.20662589 -13.1650204 24.39745974 -13.85931396 25.5880127 C-15.93593781 29.15314295 -17.98942316 32.73024987 -20.02093506 36.3212738 C-20.98067062 38.01663611 -21.94584757 39.7089144 -22.91113281 41.40112305 C-24.12205416 43.52409389 -25.32475946 45.65177555 -26.51855469 47.78442383 C-27.06415039 48.73470459 -27.60974609 49.68498535 -28.171875 50.6640625 C-28.6472168 51.50404785 -29.12255859 52.3440332 -29.61230469 53.20947266 C-30.07024414 53.80034668 -30.52818359 54.3912207 -31 55 C-31.99 55 -32.98 55 -34 55 C-34.63446045 53.85168701 -34.63446045 53.85168701 -35.28173828 52.68017578 C-36.87943079 49.79054629 -38.47874538 46.90182642 -40.07910156 44.01367188 C-40.76625846 42.77281152 -41.452801 41.53161071 -42.13867188 40.29003906 C-43.13503007 38.486689 -44.13346722 36.68450876 -45.1328125 34.8828125 C-45.45904602 34.29316711 -45.78527954 33.70352173 -46.12139893 33.0960083 C-48.59005003 28.66211912 -51.21673911 24.34741102 -53.96435547 20.08154297 C-55 18 -55 18 -55 14 C-46.96578607 6.20977521 -35.38427502 1.78310826 -24.62109375 -0.50390625 C-16.93549862 -1.55684107 -7.4640853 -2.40401708 0 0 Z " fill="#030303" transform="translate(263,198)"/>
<path d="M0 0 C2.63091092 3.29861379 4.62828598 6.79033884 6.65234375 10.48828125 C6.99374893 11.10970505 7.33515411 11.73112885 7.68690491 12.37138367 C8.77333226 14.35018419 9.85556334 16.33124118 10.9375 18.3125 C12.01672074 20.28256753 13.09681469 22.25215286 14.17738342 24.22148132 C15.16134497 26.01572669 16.14311375 27.81117406 17.12475586 29.60668945 C18.10811105 31.38610018 19.09757126 33.1629734 20.14189148 34.90730286 C21.1393127 36.57898553 22.07452372 38.28743885 23 40 C22.52734375 42.22265625 22.52734375 42.22265625 21 44 C12.63660393 51.31592572 1.53135333 56.60530494 -9.375 58.625 C-16.19685462 59.38744258 -23.14708127 59.07484984 -30 59 C-27.63254782 50.91770904 -23.96342256 43.67446918 -20.0625 36.25 C-19.39567929 34.96984579 -18.72893202 33.68965332 -18.06225586 32.40942383 C-12.32738052 21.44316882 -6.2760309 10.66588117 0 0 Z " fill="#030303" transform="translate(271,265)"/>
<path d="M0 0 C7.57832859 -0.44371875 15.15529229 -0.77947544 22.74371529 -0.98443127 C26.27022178 -1.08293031 29.78775112 -1.21585746 33.30908203 -1.43334961 C51.92239415 -2.55348537 51.92239415 -2.55348537 60 0 C66.00027582 4.18861306 69.60680951 10.21378581 72.7507019 16.70707703 C74.23872314 19.59728628 74.23872314 19.59728628 78 24 C77.34 28.95 76.68 33.9 76 39 C49.93 39 23.86 39 -3 39 C-3 36.03 -3 33.06 -3 30 C21.42 30 45.84 30 71 30 C64.17093643 20.37072769 64.17093643 20.37072769 57 11 C57 10.34 57 9.68 57 9 C37.86 9 18.72 9 -1 9 C-0.67 6.03 -0.34 3.06 0 0 Z " fill="#094FA9" transform="translate(102,219)"/>
<path d="M0 0 C12.44546705 3.46840885 22.14912412 10.67938492 30.62060547 20.27636719 C34.44778005 25.05864198 37.33497214 30.50533963 40 36 C40 36.33 40 36.66 40 37 C19.54 37 -0.92 37 -22 37 C-20.59333498 33.48333746 -19.34127586 30.69674026 -17.42578125 27.5234375 C-16.67615112 26.27687378 -16.67615112 26.27687378 -15.91137695 25.00512695 C-15.38374756 24.13718506 -14.85611816 23.26924316 -14.3125 22.375 C-13.77520264 21.48578857 -13.23790527 20.59657715 -12.68432617 19.68041992 C-1.92621257 1.92621257 -1.92621257 1.92621257 0 0 Z " fill="#010101" transform="translate(269,200)"/>
<path d="M0 0 C4.42430335 -0.87460378 8.8031728 -0.69552 13.296875 -0.5859375 C15.25273529 -0.57320297 15.25273529 -0.57320297 17.24810791 -0.56021118 C20.70771797 -0.53734748 24.16580638 -0.47845108 27.62481689 -0.4119873 C31.1572206 -0.35050832 34.68987127 -0.32318454 38.22265625 -0.29296875 C45.14906095 -0.22870131 52.07445735 -0.12635481 59 0 C60.35439668 2.70879335 60.06501451 5.00933268 60 8 C58.98761261 7.96549744 58.98761261 7.96549744 57.95477295 7.93029785 C50.88059185 7.7052677 43.81095617 7.59475293 36.73339844 7.54833984 C34.09877458 7.51636782 31.46432726 7.45594817 28.83105469 7.36572266 C16.28122985 6.83765846 16.28122985 6.83765846 4 9 C-1.18475549 12.40526701 -4.27806297 17.35027674 -6.90057373 22.87390137 C-8.36945563 25.71446275 -10.22613824 28.33920736 -12 31 C12.42 31 36.84 31 62 31 C62 33.64 62 36.28 62 39 C36.26 39 10.52 39 -16 39 C-16.66 34.05 -17.32 29.1 -18 24 C-15.85335853 19.91277003 -14.40723733 17.64862174 -11.375 14.4375 C-10.08997502 12.95804739 -8.80609338 11.4776008 -7.5234375 9.99609375 C-6.94513184 9.36888428 -6.36682617 8.7416748 -5.77099609 8.09545898 C-3.80485848 5.97412094 -3.80485848 5.97412094 -2.61083984 2.78686523 C-1.31847412 1.40736694 -1.31847412 1.40736694 0 0 Z " fill="#004AAC" transform="translate(338,219)"/>
<path d="M0 0 C0.66 0 1.32 0 2 0 C2.23074219 0.88042969 2.46148437 1.76085937 2.69921875 2.66796875 C4.66234851 9.75024662 4.66234851 9.75024662 8.1875 16.125 C11.9241126 18.61607507 15.70069981 19.80843365 20 21 C20.99 21.33 21.98 21.66 23 22 C23 22.66 23 23.32 23 24 C22.34773438 24.17015625 21.69546875 24.3403125 21.0234375 24.515625 C15.74030668 25.98056393 11.2449769 27.37623923 7 31 C3.74655289 35.88017066 2.95588999 41.3096431 2 47 C1.34 46.67 0.68 46.34 0 46 C-0.52984925 44.10185872 -0.97494588 42.17967284 -1.375 40.25 C-2.20465594 36.81750191 -2.93836975 34.11377893 -4.625 31 C-9.23811229 27.11527386 -15.01500599 24.77225729 -21 24 C-21 23.34 -21 22.68 -21 22 C-20.19175781 21.76925781 -19.38351562 21.53851563 -18.55078125 21.30078125 C-13.8943358 19.87969476 -9.88412159 18.64955872 -5.9375 15.75 C-2.56596544 10.96459611 -0.9015926 5.77019262 0 0 Z " fill="#F6F8FC" transform="translate(314,152)"/>
<path d="M0 0 C0.66 0 1.32 0 2 0 C2.23074219 0.88042969 2.46148437 1.76085937 2.69921875 2.66796875 C4.65714338 9.64897168 4.65714338 9.64897168 7.9375 16.0625 C12.87823156 19.18826894 18.3776141 20.52649037 24 22 C21.11120887 23.92586075 18.90295404 24.72620065 15.625 25.75 C12.06128992 27.0476042 9.95239247 28.03967294 7 30.5 C3.82542448 34.95594964 3.04799262 40.73447612 2 46 C1.34 46 0.68 46 0 46 C-0.23783203 44.80503906 -0.23783203 44.80503906 -0.48046875 43.5859375 C-1.89388367 36.60493105 -1.89388367 36.60493105 -5.25 30.4375 C-10.38604068 25.8851003 -15.37109275 24.92804702 -22 24 C-22.33 23.34 -22.66 22.68 -23 22 C-21.865625 21.7525 -20.73125 21.505 -19.5625 21.25 C-14.79262308 20.01305146 -10.13546594 18.75697729 -6 16 C-2.37762895 11.40826205 -1.20260759 5.61216876 0 0 Z " fill="#F5F8FC" transform="translate(177,137)"/>
<path d="M0 0 C2.77428577 1.26103899 4.48317435 2.31089914 6.3125 4.75 C7.31199111 8.0210618 7.3581657 10.59742588 7 14 C5.20437595 16.75329021 3.94745078 18.52627461 1 20 C-2.3859337 20.41291874 -5.61839704 20.46981883 -9 20 C-11.5625 18 -11.5625 18 -13 15 C-13.88652922 12.08795701 -14 10.15745746 -14 7 C-12.32514248 4.14653904 -10.81456049 2.57019234 -8.125 0.6875 C-5.23600403 -0.24717517 -3.02322002 -0.30849184 0 0 Z " fill="#0C0C0C" transform="translate(291,406)"/>
<path d="M0 0 C11.88 0 23.76 0 36 0 C37 2 37 2 37 9 C25.12 9 13.24 9 1 9 C0 7 0 7 0 0 Z " fill="#FAF9F5" transform="translate(398,219)"/>
<path d="M0 0 C2.5625 1.625 2.5625 1.625 4 4 C3.75 7.25 3.75 7.25 3 10 C2.34 10 1.68 10 1 10 C1.66 11.11375 2.32 12.2275 3 13.375 C5 16.75 5 16.75 5 19 C1.6875 19.3125 1.6875 19.3125 -2 19 C-3.8125 16.5625 -3.8125 16.5625 -5 14 C-5.66 13.67 -6.32 13.34 -7 13 C-7 15.31 -7 17.62 -7 20 C-8.98 20 -10.96 20 -13 20 C-14.00926479 15.84373632 -14.10239579 11.95634906 -14.0625 7.6875 C-14.05347656 6.43324219 -14.04445313 5.17898438 -14.03515625 3.88671875 C-14.01775391 2.45779297 -14.01775391 2.45779297 -14 1 C-9.1478552 0.14983788 -4.91366726 -0.39626349 0 0 Z " fill="#1B1B1B" transform="translate(271,409)"/>
<path d="M0 0 C11.88 0 23.76 0 36 0 C35.67 2.64 35.34 5.28 35 8 C23.12 8 11.24 8 -1 8 C-1 2 -1 2 0 0 Z " fill="#FEFEFE" transform="translate(66,219)"/>
<path d="M0 0 C2.64 0 5.28 0 8 0 C10.70071112 6.27980887 12.70024676 12.28460827 14 19 C11.69 19 9.38 19 7 19 C7 18.01 7 17.02 7 16 C4.69 16 2.38 16 0 16 C0 16.99 0 17.98 0 19 C-2.31 19 -4.62 19 -7 19 C-6.57847656 17.87980469 -6.15695313 16.75960938 -5.72265625 15.60546875 C-5.16924176 14.13282342 -4.61585795 12.66016657 -4.0625 11.1875 C-3.78470703 10.44951172 -3.50691406 9.71152344 -3.22070312 8.95117188 C-2.95322266 8.23896484 -2.68574219 7.52675781 -2.41015625 6.79296875 C-2.04096069 5.81106567 -2.04096069 5.81106567 -1.66430664 4.80932617 C-1.07962967 3.21688185 -0.53644441 1.60933324 0 0 Z " fill="#1A1A1A" transform="translate(240,410)"/>
<path d="M0 0 C3.99738888 -0.20020312 6.36364168 0.24541544 9.90234375 2.1953125 C11.83984375 4.5078125 11.83984375 4.5078125 12.15234375 7.2578125 C12.04921875 8.0003125 11.94609375 8.7428125 11.83984375 9.5078125 C10.18984375 9.5078125 8.53984375 9.5078125 6.83984375 9.5078125 C6.50984375 8.1878125 6.17984375 6.8678125 5.83984375 5.5078125 C4.18984375 5.8378125 2.53984375 6.1678125 0.83984375 6.5078125 C0.50984375 8.8178125 0.17984375 11.1278125 -0.16015625 13.5078125 C1.48984375 13.8378125 3.13984375 14.1678125 4.83984375 14.5078125 C5.16984375 13.8478125 5.49984375 13.1878125 5.83984375 12.5078125 C7.48984375 12.5078125 9.13984375 12.5078125 10.83984375 12.5078125 C11.16984375 13.1678125 11.49984375 13.8278125 11.83984375 14.5078125 C10.52734375 17.0703125 10.52734375 17.0703125 8.83984375 19.5078125 C5.73030996 21.0625794 3.27717614 20.79425687 -0.16015625 20.5078125 C-3.53515625 18.6328125 -3.53515625 18.6328125 -6.16015625 16.5078125 C-7.46366731 13.90079038 -7.55009593 11.50208009 -7.4921875 8.6171875 C-7.12623429 6.29230831 -6.5595541 4.93735579 -5.22265625 3.0078125 C-2.16015625 0.5078125 -2.16015625 0.5078125 0 0 Z " fill="#121212" transform="translate(220.16015625,407.4921875)"/>
<path d="M0 0 C2 3 2 3 3.1875 6 C4.67577008 8.98993702 4.67577008 8.98993702 6.75 10.0546875 C8.46858405 10.78231381 10.2328614 11.39983972 12 12 C10 14 10 14 7.0625 15.0625 C3.91906597 16.67313373 3.91906597 16.67313373 2.94140625 19.1953125 C2.20269875 21.45031436 1.55147406 23.69251642 1 26 C-1 24 -1 24 -1.875 21.0625 C-2.75772935 17.99731908 -2.75772935 17.99731908 -4.75 16.25 C-7.4143357 14.7698135 -10.08198501 13.86214079 -13 13 C-13 12.67 -13 12.34 -13 12 C-11.741875 11.7525 -10.48375 11.505 -9.1875 11.25 C-6.45918376 10.55709429 -5.21271353 10.19853263 -3.125 8.25 C-1.78401114 5.56802228 -0.84891004 2.87323397 0 0 Z " fill="#ECF1F8" transform="translate(267,129)"/>
<path d="M0 0 C1.65 0.33 3.3 0.66 5 1 C5.45510807 7.67491831 3.7672426 13.59374557 2 20 C0.02 19.67 -1.96 19.34 -4 19 C-3.71632132 16.76980273 -3.42272612 14.54086546 -3.125 12.3125 C-2.96257812 11.07113281 -2.80015625 9.82976562 -2.6328125 8.55078125 C-2.07521631 5.42204705 -1.30991877 2.87851898 0 0 Z " fill="#101010" transform="translate(206,405)"/>
<path d="M0 0 C3 0.3125 3 0.3125 6 1 C7.36623674 3.73247348 7.128426 5.98198902 7 9 C6.67 9.33 6.34 9.66 6 10 C4.00041636 10.04080783 1.99954746 10.04254356 0 10 C-1.0625 8.3125 -1.0625 8.3125 -2 6 C-1.6875 3.3125 -1.6875 3.3125 -1 1 C-0.67 0.67 -0.34 0.34 0 0 Z " fill="#E8E8E8" transform="translate(285,411)"/>
<path d="M0 0 C2 2 2 2 3.375 4.5 C4.80558138 7.10080411 4.80558138 7.10080411 7.1875 8.3125 C7.785625 8.539375 8.38375 8.76625 9 9 C8.071875 9.433125 7.14375 9.86625 6.1875 10.3125 C3.52815927 11.72038627 1.91894095 12.76123556 0 15 C-0.3403125 14.071875 -0.3403125 14.071875 -0.6875 13.125 C-1.87879956 10.76669896 -1.87879956 10.76669896 -4.625 9.75 C-5.40875 9.5025 -6.1925 9.255 -7 9 C-6.01 8.34 -5.02 7.68 -4 7 C-1.99422543 5.30280614 -1.10763704 4.34248148 -0.3125 1.8125 C-0.1578125 0.9153125 -0.1578125 0.9153125 0 0 Z " fill="#E6EDF7" transform="translate(305,126)"/>
<path d="M0 0 C2 2 2 2 3 5 C4.99665314 6.68538601 4.99665314 6.68538601 7 8 C6.21625 8.598125 5.4325 9.19625 4.625 9.8125 C1.85425677 11.91085249 1.85425677 11.91085249 0 15 C-0.391875 14.21625 -0.78375 13.4325 -1.1875 12.625 C-2.80549999 9.82311396 -2.80549999 9.82311396 -5.6875 8.6875 C-6.450625 8.460625 -7.21375 8.23375 -8 8 C-7.401875 7.731875 -6.80375 7.46375 -6.1875 7.1875 C-3.98412529 5.9913823 -2.60579597 4.91166187 -1 3 C-0.67 2.01 -0.34 1.02 0 0 Z " fill="#EAF0F8" transform="translate(215,120)"/>
<path d="M0 0 C0.66 0.33 1.32 0.66 2 1 C2.33 1.99 2.66 2.98 3 4 C3.66 4.66 4.32 5.32 5 6 C3.35 7.32 1.7 8.64 0 10 C-0.33 9.34 -0.66 8.68 -1 8 C-3.01669827 6.86649466 -3.01669827 6.86649466 -5 6 C-4.360625 5.566875 -3.72125 5.13375 -3.0625 4.6875 C-0.73253997 3.08760823 -0.73253997 3.08760823 0 0 Z " fill="#D7E3F2" transform="translate(224,172)"/>
</svg>
