<?xml version="1.0" encoding="UTF-8"?>
<svg version="1.1" xmlns="http://www.w3.org/2000/svg" width="500" height="500">
<path d="M0 0 C1.14695343 -0.0146228 1.14695343 -0.0146228 2.31707764 -0.02954102 C20.16457588 -0.210033 37.28786712 0.2971318 54.78515625 4.23828125 C55.63513184 4.42551758 56.48510742 4.61275391 57.36083984 4.80566406 C75.42589437 8.89386675 92.50439364 15.44811814 108.78515625 24.23828125 C109.38666504 24.55909668 109.98817383 24.87991211 110.60791016 25.21044922 C124.97215562 32.92334786 137.5406831 42.53844597 149.78515625 53.23828125 C151.05552734 54.32302734 151.05552734 54.32302734 152.3515625 55.4296875 C157.29746412 59.70609313 161.58806219 64.23568428 165.78515625 69.23828125 C166.61917969 70.18445313 167.45320313 71.130625 168.3125 72.10546875 C182.25017619 88.00235565 206.78515625 119.06690732 206.78515625 141.23828125 C222.62515625 141.23828125 238.46515625 141.23828125 254.78515625 141.23828125 C249.18942838 158.02546487 234.16644882 173.77599821 218.78515625 182.23828125 C218.12515625 182.23828125 217.46515625 182.23828125 216.78515625 182.23828125 C216.85734375 182.90988281 216.92953125 183.58148438 217.00390625 184.2734375 C220.92376514 226.46636307 212.87393176 267.92627624 192.78515625 305.23828125 C192.1715625 306.40488281 191.55796875 307.57148438 190.92578125 308.7734375 C178.2984671 331.91481695 159.57300679 353.15504952 138.78515625 369.23828125 C138.26566406 369.65013672 137.74617188 370.06199219 137.2109375 370.48632812 C107.56823452 393.89772656 72.0178875 407.24410108 34.78515625 412.23828125 C33.81707031 412.36976563 32.84898437 412.50125 31.8515625 412.63671875 C-19.93719647 418.19893669 -75.46974564 402.58079687 -116.07519531 369.86694336 C-119.50039925 367.04209945 -122.86658884 364.15362682 -126.21484375 361.23828125 C-126.73965332 360.78791504 -127.26446289 360.33754883 -127.80517578 359.87353516 C-133.44827702 355.02760063 -138.45210161 349.93988016 -143.21484375 344.23828125 C-144.05917969 343.27019531 -144.90351563 342.30210937 -145.7734375 341.3046875 C-168.63273737 315.01789901 -184.11245692 283.58302413 -191.46484375 249.55078125 C-191.61606689 248.85194824 -191.76729004 248.15311523 -191.9230957 247.43310547 C-194.57423068 234.28670942 -195.52772821 221.35448566 -195.4206543 207.97998047 C-195.40208857 205.580298 -195.40014769 203.18099776 -195.40039062 200.78125 C-195.39548379 199.2330696 -195.38965916 197.68489178 -195.3828125 196.13671875 C-195.38169968 195.43042328 -195.38058685 194.72412781 -195.37944031 193.99642944 C-195.34110914 189.9790691 -194.9848862 186.18105223 -194.21484375 182.23828125 C-194.93285156 181.98046875 -195.65085938 181.72265625 -196.390625 181.45703125 C-212.26841462 174.60520503 -225.03004192 158.60117548 -232.21484375 143.23828125 C-232.21484375 142.57828125 -232.21484375 141.91828125 -232.21484375 141.23828125 C-216.70484375 140.90828125 -201.19484375 140.57828125 -185.21484375 140.23828125 C-182.57484375 133.63828125 -179.93484375 127.03828125 -177.21484375 120.23828125 C-175.5011692 116.57670606 -173.80964153 113.03400338 -171.90234375 109.48828125 C-171.44359863 108.62541504 -170.98485352 107.76254883 -170.51220703 106.87353516 C-161.09352324 89.51455138 -148.71097583 74.55906521 -135.21484375 60.23828125 C-134.52519531 59.50609375 -133.83554688 58.77390625 -133.125 58.01953125 C-99.66607981 23.53426381 -48.01128308 0.51169938 0 0 Z " fill="#F8F8F9" transform="translate(239.21484375,43.76171875)"/>
<path d="M0 0 C1.14695343 -0.0146228 1.14695343 -0.0146228 2.31707764 -0.02954102 C20.16457588 -0.210033 37.28786712 0.2971318 54.78515625 4.23828125 C55.63513184 4.42551758 56.48510742 4.61275391 57.36083984 4.80566406 C75.42589437 8.89386675 92.50439364 15.44811814 108.78515625 24.23828125 C109.38666504 24.55909668 109.98817383 24.87991211 110.60791016 25.21044922 C124.97215562 32.92334786 137.5406831 42.53844597 149.78515625 53.23828125 C151.05552734 54.32302734 151.05552734 54.32302734 152.3515625 55.4296875 C157.29746412 59.70609313 161.58806219 64.23568428 165.78515625 69.23828125 C166.61917969 70.18445313 167.45320313 71.130625 168.3125 72.10546875 C182.25017619 88.00235565 206.78515625 119.06690732 206.78515625 141.23828125 C222.62515625 141.23828125 238.46515625 141.23828125 254.78515625 141.23828125 C249.18942838 158.02546487 234.16644882 173.77599821 218.78515625 182.23828125 C218.12515625 182.23828125 217.46515625 182.23828125 216.78515625 182.23828125 C216.85734375 182.90988281 216.92953125 183.58148438 217.00390625 184.2734375 C220.92376514 226.46636307 212.87393176 267.92627624 192.78515625 305.23828125 C192.1715625 306.40488281 191.55796875 307.57148438 190.92578125 308.7734375 C178.2984671 331.91481695 159.57300679 353.15504952 138.78515625 369.23828125 C138.26566406 369.65013672 137.74617188 370.06199219 137.2109375 370.48632812 C107.56823452 393.89772656 72.0178875 407.24410108 34.78515625 412.23828125 C33.81707031 412.36976563 32.84898437 412.50125 31.8515625 412.63671875 C-19.93719647 418.19893669 -75.46974564 402.58079687 -116.07519531 369.86694336 C-119.50039925 367.04209945 -122.86658884 364.15362682 -126.21484375 361.23828125 C-126.73965332 360.78791504 -127.26446289 360.33754883 -127.80517578 359.87353516 C-133.44827702 355.02760063 -138.45210161 349.93988016 -143.21484375 344.23828125 C-144.05917969 343.27019531 -144.90351563 342.30210937 -145.7734375 341.3046875 C-168.63273737 315.01789901 -184.11245692 283.58302413 -191.46484375 249.55078125 C-191.61606689 248.85194824 -191.76729004 248.15311523 -191.9230957 247.43310547 C-194.57423068 234.28670942 -195.52772821 221.35448566 -195.4206543 207.97998047 C-195.40208857 205.580298 -195.40014769 203.18099776 -195.40039062 200.78125 C-195.39548379 199.2330696 -195.38965916 197.68489178 -195.3828125 196.13671875 C-195.38169968 195.43042328 -195.38058685 194.72412781 -195.37944031 193.99642944 C-195.34110914 189.9790691 -194.9848862 186.18105223 -194.21484375 182.23828125 C-194.93285156 181.98046875 -195.65085938 181.72265625 -196.390625 181.45703125 C-212.26841462 174.60520503 -225.03004192 158.60117548 -232.21484375 143.23828125 C-232.21484375 142.57828125 -232.21484375 141.91828125 -232.21484375 141.23828125 C-216.70484375 140.90828125 -201.19484375 140.57828125 -185.21484375 140.23828125 C-182.57484375 133.63828125 -179.93484375 127.03828125 -177.21484375 120.23828125 C-175.5011692 116.57670606 -173.80964153 113.03400338 -171.90234375 109.48828125 C-171.44359863 108.62541504 -170.98485352 107.76254883 -170.51220703 106.87353516 C-161.09352324 89.51455138 -148.71097583 74.55906521 -135.21484375 60.23828125 C-134.52519531 59.50609375 -133.83554688 58.77390625 -133.125 58.01953125 C-99.66607981 23.53426381 -48.01128308 0.51169938 0 0 Z M-51.21484375 29.23828125 C-52.40078125 29.61597656 -53.58671875 29.99367188 -54.80859375 30.3828125 C-71.42036815 36.21879114 -87.38659513 45.3929571 -101.21484375 56.23828125 C-102.11074219 56.92535156 -103.00664062 57.61242187 -103.9296875 58.3203125 C-109.94044722 63.01592911 -115.63255744 68.04352556 -121.21484375 73.23828125 C-122.21451172 74.15673828 -122.21451172 74.15673828 -123.234375 75.09375 C-143.79102414 94.72932728 -160.63505285 122.97762975 -168.21484375 150.23828125 C-168.21484375 151.22828125 -168.21484375 152.21828125 -168.21484375 153.23828125 C-181.41484375 153.23828125 -194.61484375 153.23828125 -208.21484375 153.23828125 C-204.40517354 162.76245678 -197.24083384 168.90259112 -188.1796875 173.40625 C-184.72263218 174.87017204 -181.70935808 175.36318982 -177.96484375 175.30078125 C-176.72734375 175.28015625 -175.48984375 175.25953125 -174.21484375 175.23828125 C-174.54484375 178.20828125 -174.87484375 181.17828125 -175.21484375 184.23828125 C-177.85484375 184.23828125 -180.49484375 184.23828125 -183.21484375 184.23828125 C-181.25997827 188.39046723 -181.25997827 188.39046723 -178.63476562 192.12573242 C-176.89909486 194.70805002 -176.83348742 196.19913568 -176.80859375 199.2890625 C-176.78885498 200.28623291 -176.76911621 201.28340332 -176.7487793 202.31079102 C-176.73758057 203.37998779 -176.72638184 204.44918457 -176.71484375 205.55078125 C-175.54909385 250.73262023 -161.31188785 293.92765098 -131.21484375 328.23828125 C-130.46460938 329.09808594 -129.714375 329.95789063 -128.94140625 330.84375 C-126.72969836 333.3385263 -124.48214851 335.79403619 -122.21484375 338.23828125 C-121.35052734 339.20121094 -121.35052734 339.20121094 -120.46875 340.18359375 C-113.58524214 347.51169343 -105.29628374 353.31779213 -97.21484375 359.23828125 C-96.60785645 359.68993652 -96.00086914 360.1415918 -95.37548828 360.60693359 C-78.41541375 373.11625298 -58.54306083 381.90658617 -38.21484375 387.23828125 C-37.48861816 387.43357422 -36.76239258 387.62886719 -36.01416016 387.83007812 C-7.73695214 395.33361244 22.26275559 395.6681542 50.78515625 389.23828125 C51.51992188 389.07279785 52.2546875 388.90731445 53.01171875 388.73681641 C57.32277242 387.73179178 61.55260303 386.53088648 65.78515625 385.23828125 C66.91824219 384.91601562 68.05132812 384.59375 69.21875 384.26171875 C86.97789223 378.85422528 103.86879456 370.25599868 118.78515625 359.23828125 C119.34348145 358.83254883 119.90180664 358.42681641 120.47705078 358.00878906 C128.76277115 351.96057292 136.35691592 345.30336317 143.78515625 338.23828125 C144.41808594 337.65820312 145.05101562 337.078125 145.703125 336.48046875 C165.46062794 317.80235433 179.4711635 291.72271451 188.08740234 266.27294922 C188.68055894 264.54328965 189.31631346 262.82833239 189.9609375 261.1171875 C195.31974081 246.5304835 197.74017071 230.17201048 197.890625 214.671875 C197.90544922 213.52654297 197.92027344 212.38121094 197.93554688 211.20117188 C197.96032626 208.84712986 197.96547084 206.49280088 197.95117188 204.13867188 C198.08403565 196.99221121 199.00641388 192.58056476 203.5012207 186.92993164 C204.98667963 185.32671669 204.98667963 185.32671669 204.78515625 183.23828125 C202.14515625 183.23828125 199.50515625 183.23828125 196.78515625 183.23828125 C196.45515625 180.59828125 196.12515625 177.95828125 195.78515625 175.23828125 C196.75453125 175.30015625 197.72390625 175.36203125 198.72265625 175.42578125 C208.35240531 175.38695162 216.84630096 170.24902221 223.59765625 163.73828125 C228.11978205 159.16775243 228.11978205 159.16775243 229.78515625 153.23828125 C216.58515625 153.23828125 203.38515625 153.23828125 189.78515625 153.23828125 C189.12515625 150.26828125 188.46515625 147.29828125 187.78515625 144.23828125 C187.02592737 141.81306193 187.02592737 141.81306193 186.15625 139.80078125 C185.84848633 139.06005371 185.54072266 138.31932617 185.22363281 137.55615234 C184.89331055 136.79125488 184.56298828 136.02635742 184.22265625 135.23828125 C183.87041992 134.4179541 183.51818359 133.59762695 183.15527344 132.75244141 C163.83176467 88.51267266 128.47365284 51.85752483 83.4765625 33.41796875 C79.61572406 31.90846111 75.71695782 30.5516526 71.78515625 29.23828125 C70.68945312 28.8721875 69.59375 28.50609375 68.46484375 28.12890625 C28.60953869 15.39871053 -11.56639562 16.27096077 -51.21484375 29.23828125 Z " fill="#030303" transform="translate(239.21484375,43.76171875)"/>
<path d="M0 0 C0.83773956 0.16076523 1.67547913 0.32153046 2.53860474 0.48716736 C6.19555139 1.02897246 9.68602607 1.16055741 13.38232422 1.20532227 C14.09521103 1.21522186 14.80809784 1.22512146 15.54258728 1.23532104 C17.87992118 1.26670405 20.21727534 1.29160085 22.5546875 1.31640625 C24.18279525 1.33699586 25.81089789 1.35799284 27.43899536 1.37937927 C31.7099594 1.43439277 35.98097001 1.48389283 40.25201416 1.53222656 C44.61596793 1.58259354 48.97985464 1.63820004 53.34375 1.69335938 C61.89577651 1.80068723 70.44785938 1.9021878 79 2 C79.46470703 3.09119141 79.92941406 4.18238281 80.40820312 5.30664062 C81.03230323 6.75661755 81.65666614 8.20648139 82.28125 9.65625 C82.58579102 10.37329102 82.89033203 11.09033203 83.20410156 11.82910156 C85.78194033 17.78950125 88.93120888 22.92544029 93 28 C93.54269531 28.70511719 94.08539063 29.41023438 94.64453125 30.13671875 C104.58556357 42.35929947 121.3064423 51.13530928 136.89306641 52.83007812 C158.41589947 54.56587092 176.84527217 50.63650861 194 37 C194.63550781 36.54109375 195.27101563 36.0821875 195.92578125 35.609375 C205.02122952 28.6675616 210.85069513 17.39825798 215 7 C215.66 5.35 216.32 3.7 217 2 C242.74 1.67 268.48 1.34 295 1 C290.70961465 35.32308277 269.01425976 68.81142408 242 90 C231.34047502 97.90664618 220.13121974 104.62669231 208 110 C207.29939453 110.31308105 206.59878906 110.62616211 205.87695312 110.94873047 C194.2096167 116.06694881 182.54283908 118.92233497 170 121 C168.60322021 121.26151855 168.60322021 121.26151855 167.17822266 121.52832031 C130.05483024 127.03779905 91.28447982 116.72237558 61 95 C59.97390625 94.27296875 58.9478125 93.5459375 57.890625 92.796875 C43.66210307 82.31635397 31.69761234 69.76530111 22 55 C21.56848633 54.34837891 21.13697266 53.69675781 20.69238281 53.02539062 C10.08918439 36.75292056 3.78094618 18.97935482 0 0 Z " fill="#004AAD" transform="translate(102,278)"/>
<path d="M0 0 C3.09998318 2.67141604 5.93120876 5.597209 8.77832031 8.5324707 C9.56207031 9.2955957 10.34582031 10.0587207 11.15332031 10.8449707 C26.29200931 26.34410467 37.26867954 43.25262862 44.77832031 63.5324707 C44.1217897 63.53833694 43.46525909 63.54420319 42.78883362 63.55024719 C35.92608374 63.6144183 29.06379254 63.69889859 22.20141602 63.79492188 C19.64386053 63.82807807 17.08623351 63.85613865 14.52856445 63.87890625 C10.84197645 63.91262286 7.15603852 63.96494926 3.46972656 64.02075195 C2.33499405 64.02714188 1.20026154 64.0335318 0.03114319 64.04011536 C-9.94383303 64.22286138 -16.78739279 65.82348009 -24.22167969 72.5324707 C-24.88167969 72.5324707 -25.54167969 72.5324707 -26.22167969 72.5324707 C-26.46660156 73.08418945 -26.71152344 73.6359082 -26.96386719 74.2043457 C-28.47906083 77.00886562 -30.33252095 79.31350193 -32.34667969 81.7824707 C-33.07113281 82.67450195 -33.79558594 83.5665332 -34.54199219 84.4855957 C-35.09628906 85.16106445 -35.65058594 85.8365332 -36.22167969 86.5324707 C-38.96576974 83.86908918 -41.47830786 81.2217443 -43.84667969 78.2199707 C-54.05618483 66.23942895 -70.69992827 58.2707838 -86.22167969 56.5324707 C-89.97255688 56.34609843 -93.71662129 56.3020538 -97.47167969 56.2824707 C-98.44492188 56.2618457 -99.41816406 56.2412207 -100.42089844 56.2199707 C-110.47020382 56.16658794 -119.30715653 58.59035107 -128.22167969 63.1574707 C-129.2385083 63.67361938 -129.2385083 63.67361938 -130.27587891 64.20019531 C-138.73854621 68.65586476 -146.05090206 74.51203797 -152.00292969 82.0246582 C-153.3112194 83.6432474 -154.72945522 85.08362486 -156.22167969 86.5324707 C-156.93453125 85.66364258 -157.64738281 84.79481445 -158.38183594 83.8996582 C-170.00826198 69.675013 -170.00826198 69.675013 -187.15948486 64.23477173 C-190.37290855 64.0934692 -193.57553877 64.03930656 -196.79199219 64.02075195 C-197.95423309 64.00280075 -199.116474 63.98484955 -200.31393433 63.96635437 C-203.99148025 63.91258365 -207.66889887 63.87846202 -211.34667969 63.8449707 C-213.85450978 63.81176835 -216.36232314 63.77727603 -218.87011719 63.74145508 C-224.98719043 63.65687642 -231.10428085 63.58838711 -237.22167969 63.5324707 C-236.76462425 62.11698042 -236.30364049 60.7027583 -235.84106445 59.2890625 C-235.58478775 58.50137985 -235.32851105 57.7136972 -235.06446838 56.90214539 C-233.7507916 53.20847149 -232.010577 49.79389207 -230.15917969 46.3449707 C-229.76923828 45.6152002 -229.37929687 44.88542969 -228.97753906 44.13354492 C-224.97791674 36.82262956 -220.31412097 30.11706843 -215.22167969 23.5324707 C-214.45726562 22.54375977 -213.69285156 21.55504883 -212.90527344 20.53637695 C-190.32047606 -7.78299506 -157.6393647 -25.87052161 -122.22167969 -32.4675293 C-121.2690625 -32.6737793 -120.31644531 -32.8800293 -119.33496094 -33.0925293 C-77.26357221 -41.18102059 -32.77608022 -26.34275869 0 0 Z " fill="#014BAD" transform="translate(346.2216796875,133.467529296875)"/>
<path d="M0 0 C0.66 0 1.32 0 2 0 C2 0.66 2 1.32 2 2 C2.56589844 2.27714844 3.13179688 2.55429688 3.71484375 2.83984375 C5.21018914 3.5990191 6.68390037 4.40281104 8.12890625 5.25390625 C17.05082276 10.05140549 26.10472509 9.88720412 36 10 C36 12.97 36 15.94 36 19 C30.06 19 24.12 19 18 19 C24.9747084 29.66987428 24.9747084 29.66987428 35.46484375 36.390625 C40.05395824 38.98331075 40.78707947 43.04239869 42.15356445 47.88476562 C42.60348755 49.61243164 42.60348755 49.61243164 43.0625 51.375 C43.73974491 53.74884145 44.42199585 56.12126072 45.109375 58.4921875 C45.43357422 59.62624023 45.75777344 60.76029297 46.09179688 61.92871094 C55.500617 93.74671017 79.88067941 120.09811323 107 138 C107.90419678 138.59917236 107.90419678 138.59917236 108.82666016 139.21044922 C123.55545882 148.76483866 140.89126432 154.48068777 158 158 C158.76948975 158.17515137 159.53897949 158.35030273 160.33178711 158.53076172 C168.63655675 160.27267336 176.8678842 160.39914614 185.3125 160.375 C186.43558563 160.37368576 186.43558563 160.37368576 187.58135986 160.37234497 C226.60396826 160.22219807 262.32968193 145.33385751 291 119 C291.72316406 118.35933594 292.44632812 117.71867187 293.19140625 117.05859375 C312.84244705 98.72035735 324.32077141 73.85647519 331.921875 48.55859375 C332.27765625 47.38425781 332.6334375 46.20992188 333 45 C333.42152344 43.37191406 333.42152344 43.37191406 333.8515625 41.7109375 C335.26288952 38.37943767 336.41809036 37.75124077 339.625 36.1875 C347.14025329 32.05465448 351.63461613 26.27563978 356 19 C350.06 19 344.12 19 338 19 C338 16.36 338 13.72 338 11 C339.74023438 10.87044922 339.74023438 10.87044922 341.515625 10.73828125 C351.15659523 9.91126257 359.26992836 8.46521697 368 4 C368.76570313 3.6184375 369.53140625 3.236875 370.3203125 2.84375 C370.87460937 2.5653125 371.42890625 2.286875 372 2 C372 1.34 372 0.68 372 0 C372.66 0 373.32 0 374 0 C375.28889349 55.59427249 357.20282768 103.36608329 319 144 C318.41734375 144.63679687 317.8346875 145.27359375 317.234375 145.9296875 C298.87075824 165.3135052 273.08078663 179.60431295 248 188 C246.9275 188.36609375 245.855 188.7321875 244.75 189.109375 C238.59509071 191.10972052 232.36895581 192.69104639 226.0625 194.125 C225.37172363 194.28371582 224.68094727 194.44243164 223.96923828 194.60595703 C211.85131397 197.2582346 199.89734453 198.38400016 187.5 198.3125 C186.80479248 198.31001251 186.10958496 198.30752502 185.39331055 198.30496216 C145.58408109 198.08613644 106.64918762 185.41049159 75 161 C74.09894531 160.31035156 73.19789063 159.62070312 72.26953125 158.91015625 C66.26832157 154.21153472 60.57825388 149.1910032 55 144 C54.33355469 143.38769531 53.66710937 142.77539062 52.98046875 142.14453125 C20.90534859 111.50658552 1.49685495 64.56770422 -0.12451172 20.62548828 C-0.24283508 13.74806543 -0.17808289 6.87582607 0 0 Z " fill="#FCFCFC" transform="translate(63,239)"/>
<path d="M0 0 C1.07362793 0.20882812 1.07362793 0.20882812 2.16894531 0.421875 C27.10765807 5.31226261 51.53012224 15.97304801 72 31 C72.56122559 31.40718262 73.12245117 31.81436523 73.70068359 32.23388672 C81.98292316 38.28066515 89.57445449 44.93748116 97 52 C97.94939453 52.87011719 97.94939453 52.87011719 98.91796875 53.7578125 C119.46020137 73.17778538 134.75599659 101.27029611 143 128 C143 128.99 143 129.98 143 131 C130.46 131 117.92 131 105 131 C100 121 100 121 98.296875 117.41796875 C91.94869483 104.16053188 83.61661542 91.25875198 73 81 C72.34 80.34 71.68 79.68 71 79 C71 78.34 71 77.68 71 77 C70.40574219 76.73646729 69.81148438 76.47293457 69.19921875 76.20141602 C66.90838108 74.9499493 65.56956727 73.69032363 63.8125 71.77734375 C59.91273436 67.76867508 55.63292115 64.67175107 51 61.5625 C50.16186768 60.99829346 49.32373535 60.43408691 48.46020508 59.8527832 C15.49972689 37.9575412 -24.52211476 28.57261096 -63.7109375 36.08984375 C-65.14201084 36.38662339 -66.57177766 36.68979037 -68 37 C-68.66676758 37.14453613 -69.33353516 37.28907227 -70.02050781 37.43798828 C-107.1391625 45.8049741 -141.34079091 69.25665526 -161.71411133 101.47216797 C-167.52350426 110.94796245 -172.62413528 120.78964898 -177 131 C-189.54 131 -202.08 131 -215 131 C-208.57938545 102.10723451 -191.76986503 76.61190365 -172 55 C-171.14148438 54.05769531 -170.28296875 53.11539063 -169.3984375 52.14453125 C-161.7035657 44.08932558 -152.98657014 37.5366449 -144 31 C-143.40799805 30.5580127 -142.81599609 30.11602539 -142.20605469 29.66064453 C-125.35388963 17.13644409 -105.36740771 7.93755338 -85 3 C-83.27050677 2.45937693 -81.54131185 1.91779807 -79.8125 1.375 C-54.45176058 -5.22935922 -25.5826181 -5.34459018 0 0 Z " fill="#FDFDFD" transform="translate(286,66)"/>
<path d="M0 0 C1.2884935 -0.00029205 2.576987 -0.00058411 3.90452576 -0.00088501 C7.42058454 -0.00145657 10.93650562 0.01026572 14.45253253 0.02426291 C18.13339198 0.03680317 21.81425493 0.03794336 25.49513245 0.04031372 C32.45770879 0.04651883 39.420222 0.06291647 46.3827706 0.0830127 C54.31264014 0.10540193 62.24251277 0.11637272 70.17240608 0.12640357 C86.47768588 0.1472836 102.78290225 0.18244065 119.08813477 0.22705078 C115.48978838 9.66602212 107.99368156 16.12312194 98.99829102 20.41064453 C94.37808365 22.38533439 90.06596807 22.32465536 85.08813477 22.22705078 C85.58313477 26.18705078 85.58313477 26.18705078 86.08813477 30.22705078 C88.72813477 30.22705078 91.36813477 30.22705078 94.08813477 30.22705078 C92.59141935 34.71719702 90.25445135 38.70553842 87.08813477 42.22705078 C86.42813477 42.22705078 85.76813477 42.22705078 85.08813477 42.22705078 C85.08813477 42.88705078 85.08813477 43.54705078 85.08813477 44.22705078 C74.35482372 52.03309517 64.05139218 53.43802604 51.08813477 53.22705078 C51.08813477 55.86705078 51.08813477 58.50705078 51.08813477 61.22705078 C57.02813477 61.22705078 62.96813477 61.22705078 69.08813477 61.22705078 C65.25816193 70.80198287 57.57819081 78.13833029 48.08813477 82.22705078 C43.58384136 83.16243062 39.29989261 83.34852441 34.70581055 83.34057617 C33.63648033 83.34079521 33.63648033 83.34079521 32.54554749 83.34101868 C30.20814892 83.3403265 27.87083177 83.3325669 25.53344727 83.32470703 C23.90534509 83.32284038 22.27724235 83.32141764 20.6491394 83.32041931 C16.37811718 83.3166136 12.10712932 83.30680004 7.83612061 83.29571533 C3.47221339 83.28545926 -0.89169942 83.28091272 -5.25561523 83.27587891 C-13.80771429 83.26517593 -22.35978548 83.24812302 -30.91186523 83.22705078 C-30.77138763 82.48460617 -30.63091003 81.74216156 -30.48617554 80.97721863 C-30.30358185 79.99642838 -30.12098816 79.01563812 -29.93286133 78.00512695 C-29.75113373 77.03580734 -29.56940613 76.06648773 -29.38217163 75.0677948 C-26.60873088 58.31566196 -29.77816777 42.2628314 -38.61889648 27.89892578 C-39.91186523 25.22705078 -39.91186523 25.22705078 -39.85717773 23.23095703 C-35.26123163 13.48831094 -27.20928469 4.95744019 -17.05918884 1.15969849 C-11.4847643 -0.37123736 -5.73451902 -0.03410248 0 0 Z " fill="#A99F62" transform="translate(349.911865234375,196.77294921875)"/>
<path d="M0 0 C16.90754951 -0.0702122 33.81505324 -0.12304782 50.72271538 -0.15543652 C58.57398235 -0.17087769 66.42515852 -0.19191434 74.27636719 -0.22631836 C81.12284475 -0.25630523 87.96925651 -0.27559497 94.81579792 -0.28226548 C98.43795937 -0.28616209 102.05993265 -0.2952616 105.68203354 -0.31719017 C109.73455758 -0.3415235 113.78675852 -0.34196406 117.83935547 -0.34057617 C119.62284645 -0.35675491 119.62284645 -0.35675491 121.44236755 -0.3732605 C132.69793502 -0.33166745 140.42475824 1.53389785 148.58984375 9.453125 C156.73289944 18.05810443 156.73289944 18.05810443 159 22 C158.79170288 25.55541633 156.74826209 28.63269071 155.125 31.75 C152.73895593 36.43031722 150.71719844 41.03920449 149 46 C144.55272152 41.80398019 140.88525446 37.17275921 137.1875 32.3125 C136.59001953 31.54099609 135.99253906 30.76949219 135.37695312 29.97460938 C134.53100586 28.86762695 134.53100586 28.86762695 133.66796875 27.73828125 C133.15516357 27.06837158 132.6423584 26.39846191 132.11401367 25.70825195 C131 24 131 24 131 22 C111.2 22 91.4 22 71 22 C70.67 24.97 70.34 27.94 70 31 C70.69553986 30.95780838 71.39107971 30.91561676 72.10769653 30.87214661 C78.72376409 30.48844179 85.33666039 30.2007938 91.96141243 30.01556873 C95.36702428 29.91709644 98.76332905 29.7842471 102.16357422 29.56665039 C124.14788941 28.26276978 124.14788941 28.26276978 130.66540527 32.89398193 C135.20131966 37.47643866 142 45.1683679 142 52 C130.08170632 52.13948218 118.16360922 52.24586513 106.24466324 52.31087303 C100.70920068 52.34208564 95.17429963 52.38437379 89.63916016 52.45263672 C84.28986908 52.51818915 78.94111553 52.55378164 73.59145355 52.56926346 C71.55821022 52.58028565 69.52499381 52.60180875 67.49198151 52.63438034 C55.87578041 52.81295885 46.87566058 52.79472776 37 46 C36.01 45.34 35.02 44.68 34 44 C34 43.34 34 42.68 34 42 C33.39671875 41.75378906 32.7934375 41.50757813 32.171875 41.25390625 C29.62647816 39.7843516 28.72867072 38.45215298 27.25 35.9375 C26.82203125 35.22464844 26.3940625 34.51179688 25.953125 33.77734375 C25 32 25 32 25 31 C27.64 31 30.28 31 33 31 C33.33 28.03 33.66 25.06 34 22 C32.88625 22.0825 31.7725 22.165 30.625 22.25 C21.23026116 22.25 12.87615512 16.88001806 6.3125 10.5625 C0 4.05448009 0 4.05448009 0 0 Z " fill="#ADA260" transform="translate(31,197)"/>
<path d="M0 0 C1.2884935 -0.00029205 2.576987 -0.00058411 3.90452576 -0.00088501 C7.42058454 -0.00145657 10.93650562 0.01026572 14.45253253 0.02426291 C18.13339198 0.03680317 21.81425493 0.03794336 25.49513245 0.04031372 C32.45770879 0.04651883 39.420222 0.06291647 46.3827706 0.0830127 C54.31264014 0.10540193 62.24251277 0.11637272 70.17240608 0.12640357 C86.47768588 0.1472836 102.78290225 0.18244065 119.08813477 0.22705078 C115.48978838 9.66602212 107.99368156 16.12312194 98.99829102 20.41064453 C94.37808365 22.38533439 90.06596807 22.32465536 85.08813477 22.22705078 C85.08813477 25.19705078 85.08813477 28.16705078 85.08813477 31.22705078 C73.20813477 31.22705078 61.32813477 31.22705078 49.08813477 31.22705078 C48.09813477 26.77205078 48.09813477 26.77205078 47.08813477 22.22705078 C27.61813477 22.22705078 8.14813477 22.22705078 -11.91186523 22.22705078 C-12.57186523 23.54705078 -13.23186523 24.86705078 -13.91186523 26.22705078 C-16.12625375 29.52667054 -18.49776724 32.71171711 -20.84936523 35.91455078 C-21.48293945 36.79433594 -22.11651367 37.67412109 -22.76928711 38.58056641 C-23.38223633 39.41652344 -23.99518555 40.25248047 -24.62670898 41.11376953 C-25.18479248 41.87906982 -25.74287598 42.64437012 -26.31787109 43.43286133 C-27.91186523 45.22705078 -27.91186523 45.22705078 -30.91186523 46.22705078 C-31.05881836 45.63279297 -31.20577148 45.03853516 -31.35717773 44.42626953 C-33.03187649 38.2375839 -35.45546244 33.13917535 -38.80249023 27.67236328 C-39.91186523 25.22705078 -39.91186523 25.22705078 -39.82983398 23.27001953 C-35.84548402 14.40272153 -28.53638361 6.63162133 -19.91186523 2.22705078 C-13.32920793 -0.2359045 -6.96707533 -0.04143235 0 0 Z " fill="#ADA261" transform="translate(349.911865234375,196.77294921875)"/>
<path d="M0 0 C7.57832859 -0.44371875 15.15529229 -0.77947544 22.74371529 -0.98443127 C26.27022178 -1.08293031 29.78775112 -1.21585746 33.30908203 -1.43334961 C55.99130574 -2.79834955 55.99130574 -2.79834955 62.6439209 1.84564209 C67.02650771 6.2733774 70.07590721 11.29070074 72.85398865 16.83558655 C74.26065814 19.49229179 76.12236521 21.66384397 78 24 C77.76171875 26.63671875 77.76171875 26.63671875 77 30 C76.80370445 33.60316285 76.81492628 37.20461778 76.8125 40.8125 C76.80025391 41.75931641 76.78800781 42.70613281 76.77539062 43.68164062 C76.77345703 44.61814453 76.77152344 45.55464844 76.76953125 46.51953125 C76.76542236 47.35589111 76.76131348 48.19225098 76.75708008 49.05395508 C77.09347577 53.13364028 78.03948923 57.02712867 79 61 C69.6374562 61.06972303 60.27500273 61.12292398 50.91225529 61.15543652 C46.56404974 61.17104635 42.21602274 61.19219831 37.86791992 61.22631836 C33.66632283 61.25907983 29.46489673 61.27688818 25.26318169 61.28463173 C23.66571807 61.29014527 22.06826307 61.30091142 20.47087288 61.31719017 C7.54216854 61.4436219 -3.52672257 60.27487184 -13.20703125 50.8515625 C-16.86253771 46.88649062 -18.9558414 44.11039649 -21 39 C-15.06 39 -9.12 39 -3 39 C-3 36.03 -3 33.06 -3 30 C21.42 30 45.84 30 71 30 C64.17093643 20.37072769 64.17093643 20.37072769 57 11 C57 10.34 57 9.68 57 9 C37.86 9 18.72 9 -1 9 C-0.67 6.03 -0.34 3.06 0 0 Z " fill="#ADA261" transform="translate(102,219)"/>
<path d="M0 0 C11.88 0 23.76 0 36 0 C35.67 2.97 35.34 5.94 35 9 C36.04330978 8.93671257 36.04330978 8.93671257 37.10769653 8.87214661 C43.72376409 8.48844179 50.33666039 8.2007938 56.96141243 8.01556873 C60.36702428 7.91709644 63.76332905 7.7842471 67.16357422 7.56665039 C89.14788941 6.26276978 89.14788941 6.26276978 95.66540527 10.89398193 C100.20131966 15.47643866 107 23.1683679 107 30 C95.08170632 30.13948218 83.16360922 30.24586513 71.24466324 30.31087303 C65.70920068 30.34208564 60.17429963 30.38437379 54.63916016 30.45263672 C49.28986908 30.51818915 43.94111553 30.55378164 38.59145355 30.56926346 C36.55821022 30.58028565 34.52499381 30.60180875 32.49198151 30.63438034 C20.87578041 30.81295885 11.87566058 30.79472776 2 24 C1.01 23.34 0.02 22.68 -1 22 C-1 21.34 -1 20.68 -1 20 C-1.60328125 19.75378906 -2.2065625 19.50757813 -2.828125 19.25390625 C-5.37352184 17.7843516 -6.27132928 16.45215298 -7.75 13.9375 C-8.17796875 13.22464844 -8.6059375 12.51179687 -9.046875 11.77734375 C-10 10 -10 10 -10 9 C-7.36 9 -4.72 9 -2 9 C-1.34 6.03 -0.68 3.06 0 0 Z " fill="#AFA361" transform="translate(66,219)"/>
<path d="M0 0 C3.96 0 7.92 0 12 0 C12 0.33 12 0.66 12 1 C8.37 1 4.74 1 1 1 C1 3.64 1 6.28 1 9 C6.94 9 12.88 9 19 9 C15.17002717 18.57493209 7.49005605 25.91127951 -2 30 C-6.50429341 30.93537984 -10.78824215 31.12147363 -15.38232422 31.11352539 C-16.45165443 31.11374443 -16.45165443 31.11374443 -17.54258728 31.1139679 C-19.87998585 31.11327572 -22.21730299 31.10551612 -24.5546875 31.09765625 C-26.18278968 31.0957896 -27.81089242 31.09436686 -29.43899536 31.09336853 C-33.71001759 31.08956282 -37.98100545 31.07974926 -42.25201416 31.06866455 C-46.61592138 31.05840848 -50.97983419 31.05386194 -55.34375 31.04882812 C-63.89584905 31.03812515 -72.44792024 31.02107224 -81 31 C-80.80083984 30.00033203 -80.80083984 30.00033203 -80.59765625 28.98046875 C-80.42105469 28.05878906 -80.24445313 27.13710938 -80.0625 26.1875 C-79.80146484 24.84751953 -79.80146484 24.84751953 -79.53515625 23.48046875 C-78.79749472 18.68297659 -78.43944894 13.83393837 -78 9 C-52.26 9 -26.52 9 0 9 C0 6.03 0 3.06 0 0 Z " fill="#ADA262" transform="translate(400,249)"/>
<path d="M0 0 C6.48802828 -0.02576632 12.97604296 -0.0430374 19.46411133 -0.05493164 C21.66235853 -0.05990034 23.86060254 -0.06667759 26.05883789 -0.07543945 C39.74374453 -0.12854226 53.34297495 0.09578404 67 1 C60.22746058 14.98646398 52.66803427 28.48719088 45 42 C31.75655106 40.74517897 19.47799359 31.97051194 11 22 C0 7.53968254 0 7.53968254 0 0 Z " fill="#020202" transform="translate(190,280)"/>
<path d="M0 0 C14.85 0 29.7 0 45 0 C46.69561182 4.23902955 47.25475166 5.96544664 47.265625 10.23828125 C47.26949219 11.71651367 47.26949219 11.71651367 47.2734375 13.22460938 C47.26570313 14.24361328 47.25796875 15.26261719 47.25 16.3125 C47.26160156 17.82360352 47.26160156 17.82360352 47.2734375 19.36523438 C47.2393219 32.45709753 43.10222199 47.15169425 34 57 C33.01 57 32.02 57 31 57 C30.63874023 56.32235596 30.27748047 55.64471191 29.90527344 54.9465332 C23.10475636 42.20791459 16.26952351 29.50636848 8.99707031 17.02856445 C5.74967029 11.42973798 2.90910394 5.81820788 0 0 Z " fill="#040404" transform="translate(266,243)"/>
<path d="M0 0 C0.66 0 1.32 0 2 0 C2.85677083 1.52994792 3.71354167 3.05989583 4.5703125 4.58984375 C5.13065186 5.59039795 5.69099121 6.59095215 6.26831055 7.62182617 C7.51734925 9.852358 8.76620675 12.08299131 10.01489258 14.3137207 C13.31953276 20.21672577 16.62711757 26.11803105 19.94140625 32.015625 C20.56966309 33.13461182 21.19791992 34.25359863 21.84521484 35.40649414 C23.05145732 37.55474389 24.25877313 39.70239141 25.46728516 41.84936523 C26.01819824 42.83106689 26.56911133 43.81276855 27.13671875 44.82421875 C27.61842529 45.68104248 28.10013184 46.53786621 28.59643555 47.4206543 C30.13287305 50.24418225 31.56243607 53.12487214 33 56 C17.49 56 1.98 56 -14 56 C-18.37268481 47.25463037 -15.79434039 30.73572233 -12.9375 21.6875 C-10.40996265 15.27864461 -7.04172468 9.56455459 -3 4 C-2.47664062 3.24074219 -1.95328125 2.48148438 -1.4140625 1.69921875 C-0.94742188 1.13847656 -0.48078125 0.57773438 0 0 Z " fill="#020202" transform="translate(202,218)"/>
<path d="M0 0 C-1.37300618 3.65709179 -3.02306228 6.95590808 -4.984375 10.33203125 C-5.8830127 11.88494873 -5.8830127 11.88494873 -6.79980469 13.46923828 C-7.44336914 14.57251465 -8.08693359 15.67579102 -8.75 16.8125 C-9.75935926 18.54679848 -10.76871602 20.28109842 -11.77789307 22.01550293 C-12.47120827 23.20662589 -13.1650204 24.39745974 -13.85931396 25.5880127 C-15.93593781 29.15314295 -17.98942316 32.73024987 -20.02093506 36.3212738 C-20.98067062 38.01663611 -21.94584757 39.7089144 -22.91113281 41.40112305 C-24.12205416 43.52409389 -25.32475946 45.65177555 -26.51855469 47.78442383 C-27.06415039 48.73470459 -27.60974609 49.68498535 -28.171875 50.6640625 C-28.6472168 51.50404785 -29.12255859 52.3440332 -29.61230469 53.20947266 C-30.07024414 53.80034668 -30.52818359 54.3912207 -31 55 C-31.99 55 -32.98 55 -34 55 C-34.63446045 53.85168701 -34.63446045 53.85168701 -35.28173828 52.68017578 C-36.87943079 49.79054629 -38.47874538 46.90182642 -40.07910156 44.01367188 C-40.76625846 42.77281152 -41.452801 41.53161071 -42.13867188 40.29003906 C-43.13503007 38.486689 -44.13346722 36.68450876 -45.1328125 34.8828125 C-45.45904602 34.29316711 -45.78527954 33.70352173 -46.12139893 33.0960083 C-48.59005003 28.66211912 -51.21673911 24.34741102 -53.96435547 20.08154297 C-55 18 -55 18 -55 14 C-42.16550689 1.55527457 -17.41748723 -5.60978809 0 0 Z " fill="#030303" transform="translate(263,198)"/>
<path d="M0 0 C2.63091092 3.29861379 4.62828598 6.79033884 6.65234375 10.48828125 C6.99374893 11.10970505 7.33515411 11.73112885 7.68690491 12.37138367 C8.77333226 14.35018419 9.85556334 16.33124118 10.9375 18.3125 C12.01672074 20.28256753 13.09681469 22.25215286 14.17738342 24.22148132 C15.16134497 26.01572669 16.14311375 27.81117406 17.12475586 29.60668945 C18.10811105 31.38610018 19.09757126 33.1629734 20.14189148 34.90730286 C23.04742408 39.77698923 23.04742408 39.77698923 22.52734375 42.22265625 C14.76025862 51.26108012 0.32145759 57.54127827 -11.3671875 58.84765625 C-17.56801795 59.20645801 -23.79175831 59.06780847 -30 59 C-27.63254782 50.91770904 -23.96342256 43.67446918 -20.0625 36.25 C-19.39567929 34.96984579 -18.72893202 33.68965332 -18.06225586 32.40942383 C-12.32738052 21.44316882 -6.2760309 10.66588117 0 0 Z " fill="#030303" transform="translate(271,265)"/>
<path d="M0 0 C7.57832859 -0.44371875 15.15529229 -0.77947544 22.74371529 -0.98443127 C26.27022178 -1.08293031 29.78775112 -1.21585746 33.30908203 -1.43334961 C55.99130574 -2.79834955 55.99130574 -2.79834955 62.6439209 1.84564209 C66.97715955 6.22352086 70.07488981 11.18054336 72.7507019 16.70707703 C74.23872314 19.59728628 74.23872314 19.59728628 78 24 C77.34 28.95 76.68 33.9 76 39 C49.93 39 23.86 39 -3 39 C-3 36.03 -3 33.06 -3 30 C21.42 30 45.84 30 71 30 C64.17093643 20.37072769 64.17093643 20.37072769 57 11 C57 10.34 57 9.68 57 9 C37.86 9 18.72 9 -1 9 C-0.67 6.03 -0.34 3.06 0 0 Z " fill="#094FA9" transform="translate(102,219)"/>
<path d="M0 0 C15.08071297 4.20282165 27.71949976 14.33915913 35.6809082 27.78686523 C40 35.46536024 40 35.46536024 40 37 C19.54 37 -0.92 37 -22 37 C-20.59333498 33.48333746 -19.34127586 30.69674026 -17.42578125 27.5234375 C-16.67615112 26.27687378 -16.67615112 26.27687378 -15.91137695 25.00512695 C-15.38374756 24.13718506 -14.85611816 23.26924316 -14.3125 22.375 C-13.77520264 21.48578857 -13.23790527 20.59657715 -12.68432617 19.68041992 C-1.92621257 1.92621257 -1.92621257 1.92621257 0 0 Z " fill="#010101" transform="translate(269,200)"/>
<path d="M0 0 C2.4757892 0.0009501 4.95170424 0.03485869 7.42675781 0.09521484 C9.3826181 0.10794937 9.3826181 0.10794937 11.37799072 0.12094116 C14.83760078 0.14380487 18.29568919 0.20270126 21.75469971 0.26916504 C25.28710342 0.33064402 28.81975408 0.3579678 32.35253906 0.38818359 C39.27894376 0.45245104 46.20434016 0.55479753 53.12988281 0.68115234 C54.48427949 3.3899457 54.19489732 5.69048502 54.12988281 8.68115234 C53.11749542 8.64664978 53.11749542 8.64664978 52.08465576 8.6114502 C45.01047467 8.38642004 37.94083898 8.27590527 30.86328125 8.22949219 C28.22865739 8.19752016 25.59421007 8.13710051 22.9609375 8.046875 C8.82602103 7.02159395 8.82602103 7.02159395 -4.2253418 11.22802734 C-7.94728401 14.81358253 -10.56160785 18.90220508 -12.77069092 23.55505371 C-14.23957282 26.3956151 -16.09625543 29.0203597 -17.87011719 31.68115234 C6.54988281 31.68115234 30.96988281 31.68115234 56.12988281 31.68115234 C56.12988281 34.32115234 56.12988281 36.96115234 56.12988281 39.68115234 C30.38988281 39.68115234 4.64988281 39.68115234 -21.87011719 39.68115234 C-23.87011719 24.68115234 -23.87011719 24.68115234 -21.14355469 19.48974609 C-19.88639265 17.99604941 -18.58551761 16.53812861 -17.24511719 15.11865234 C-15.9600922 13.63919973 -14.67621057 12.15875314 -13.39355469 10.67724609 C-12.81524902 10.05003662 -12.23694336 9.42282715 -11.64111328 8.77661133 C-9.67497566 6.65527328 -9.67497566 6.65527328 -8.48095703 3.46801758 C-5.33850073 0.11369378 -4.45434052 0.22084983 0 0 Z " fill="#004AAC" transform="translate(343.8701171875,218.31884765625)"/>
<path d="M0 0 C0.66 0 1.32 0 2 0 C2.23074219 0.88042969 2.46148437 1.76085937 2.69921875 2.66796875 C4.93279246 11.55331011 4.93279246 11.55331011 11 18 C13.95133363 19.2180107 16.92584772 20.14798776 20 21 C20.99 21.33 21.98 21.66 23 22 C23 22.66 23 23.32 23 24 C22.34773438 24.17015625 21.69546875 24.3403125 21.0234375 24.515625 C14.63902988 26.28593272 9.09757015 27.85364478 5.25 33.625 C3.62781318 38.00490442 2.77223225 42.40294681 2 47 C1.34 46.67 0.68 46.34 0 46 C-0.52984925 44.10185872 -0.97494588 42.17967284 -1.375 40.25 C-2.85665826 33.88471896 -2.85665826 33.88471896 -7 29 C-11.43699421 26.56922644 -15.94893978 24.65174971 -21 24 C-21 23.34 -21 22.68 -21 22 C-20.19175781 21.76925781 -19.38351562 21.53851563 -18.55078125 21.30078125 C-10.16687681 18.87863435 -10.16687681 18.87863435 -4 13 C-2.00763523 8.8287512 -0.71434754 4.57182424 0 0 Z " fill="#F6F8FC" transform="translate(314,152)"/>
<path d="M0 0 C0.66 0 1.32 0 2 0 C2.23074219 0.88042969 2.46148437 1.76085937 2.69921875 2.66796875 C4.89816287 11.61802723 4.89816287 11.61802723 11 18 C15.27904855 19.56169655 19.59493279 20.84552411 24 22 C21.11120887 23.92586075 18.90295404 24.72620065 15.625 25.75 C11.65569621 27.19528739 8.47468695 28.43007577 5.92578125 32.0078125 C3.86968795 36.43231707 2.94793418 41.23720877 2 46 C1.34 46 0.68 46 0 46 C-0.23783203 44.80503906 -0.23783203 44.80503906 -0.48046875 43.5859375 C-1.90929297 37.09702307 -2.96043501 32.46688715 -8 28 C-12.66001325 25.49740029 -16.81189842 24.72633422 -22 24 C-22.33 23.34 -22.66 22.68 -23 22 C-21.865625 21.7525 -20.73125 21.505 -19.5625 21.25 C-11.20608741 19.30095855 -11.20608741 19.30095855 -4.61328125 14.2421875 C-2.23996321 9.74258824 -1.06080669 4.95043121 0 0 Z " fill="#F5F8FC" transform="translate(177,137)"/>
<path d="M0 0 C2.44597914 1.90242822 3.35040209 2.80586139 4.25 5.75 C4.7117213 9.98244524 4.72538938 12.02106961 2.375 15.625 C-0.64174944 18.64174944 -2.45362886 18.96408657 -6.625 19.125 C-10.27701514 19.07230137 -11.35985974 19.05449972 -14.3125 16.75 C-16.2301537 12.74794011 -16.75 10.22686261 -16.75 5.75 C-12.89958471 -0.80996679 -7.14853924 -3.24933602 0 0 Z " fill="#0C0C0C" transform="translate(293.75,407.25)"/>
<path d="M0 0 C11.88 0 23.76 0 36 0 C37 2 37 2 37 9 C25.12 9 13.24 9 1 9 C0 7 0 7 0 0 Z " fill="#FAF9F5" transform="translate(398,219)"/>
<path d="M0 0 C1.4375 2.375 1.4375 2.375 1.1875 5.625 C0.94 6.5325 0.6925 7.44 0.4375 8.375 C-0.2225 8.375 -0.8825 8.375 -1.5625 8.375 C-0.9025 9.48875 -0.2425 10.6025 0.4375 11.75 C2.4375 15.125 2.4375 15.125 2.4375 17.375 C-0.875 17.6875 -0.875 17.6875 -4.5625 17.375 C-6.375 14.9375 -6.375 14.9375 -7.5625 12.375 C-8.2225 12.045 -8.8825 11.715 -9.5625 11.375 C-9.5625 13.685 -9.5625 15.995 -9.5625 18.375 C-11.5425 18.375 -13.5225 18.375 -15.5625 18.375 C-16.57176479 14.21873632 -16.66489579 10.33134906 -16.625 6.0625 C-16.61597656 4.80824219 -16.60695313 3.55398438 -16.59765625 2.26171875 C-16.58025391 0.83279297 -16.58025391 0.83279297 -16.5625 -0.625 C-4.35773503 -2.76344173 -4.35773503 -2.76344173 0 0 Z " fill="#0E0E0E" transform="translate(273.5625,410.625)"/>
<path d="M0 0 C11.88 0 23.76 0 36 0 C35.67 2.64 35.34 5.28 35 8 C23.12 8 11.24 8 -1 8 C-1 2 -1 2 0 0 Z " fill="#FEFEFE" transform="translate(66,219)"/>
<path d="M0 0 C2.64 0 5.28 0 8 0 C10.70071112 6.27980887 12.70024676 12.28460827 14 19 C11.69 19 9.38 19 7 19 C7 18.01 7 17.02 7 16 C4.69 16 2.38 16 0 16 C0 16.99 0 17.98 0 19 C-2.31 19 -4.62 19 -7 19 C-6.57847656 17.87980469 -6.15695313 16.75960938 -5.72265625 15.60546875 C-5.16924176 14.13282342 -4.61585795 12.66016657 -4.0625 11.1875 C-3.78470703 10.44951172 -3.50691406 9.71152344 -3.22070312 8.95117188 C-2.95322266 8.23896484 -2.68574219 7.52675781 -2.41015625 6.79296875 C-2.04096069 5.81106567 -2.04096069 5.81106567 -1.66430664 4.80932617 C-1.07962967 3.21688185 -0.53644441 1.60933324 0 0 Z " fill="#0E0E0E" transform="translate(240,410)"/>
<path d="M0 0 C3.29430738 0.69698728 5.01138946 1.89237411 7.16015625 4.45703125 C7.47265625 7.20703125 7.47265625 7.20703125 7.16015625 9.45703125 C5.51015625 9.45703125 3.86015625 9.45703125 2.16015625 9.45703125 C1.83015625 8.13703125 1.50015625 6.81703125 1.16015625 5.45703125 C-0.48984375 5.78703125 -2.13984375 6.11703125 -3.83984375 6.45703125 C-4.16984375 8.76703125 -4.49984375 11.07703125 -4.83984375 13.45703125 C-3.18984375 13.78703125 -1.53984375 14.11703125 0.16015625 14.45703125 C0.49015625 13.79703125 0.82015625 13.13703125 1.16015625 12.45703125 C2.81015625 12.45703125 4.46015625 12.45703125 6.16015625 12.45703125 C6.49015625 13.11703125 6.82015625 13.77703125 7.16015625 14.45703125 C4.75032018 19.16194928 4.75032018 19.16194928 2.16015625 20.45703125 C-3.53114712 21.00427196 -6.4010156 20.05036832 -10.83984375 16.45703125 C-12.46227281 13.21217313 -12.39181494 9.96367175 -11.83984375 6.45703125 C-9.46686163 0.94708253 -5.66181621 -0.4064409 0 0 Z " fill="#121212" transform="translate(224.83984375,407.54296875)"/>
<path d="M0 0 C2 3 2 3 3.1875 6 C5.62006121 10.02630821 7.62397257 10.513802 12 12 C10 14 10 14 7.0625 15.0625 C2.71765647 17.81127856 2.15549287 21.16517457 1 26 C-1 24 -1 24 -1.875 21.0625 C-3.13495914 17.63261123 -3.85842385 16.74532008 -7 15 C-8.98014432 14.27648573 -10.97821315 13.59734611 -13 13 C-13 12.67 -13 12.34 -13 12 C-11.741875 11.7525 -10.48375 11.505 -9.1875 11.25 C-6.45918376 10.55709429 -5.21271353 10.19853263 -3.125 8.25 C-1.78401114 5.56802228 -0.84891004 2.87323397 0 0 Z " fill="#ECF1F8" transform="translate(267,129)"/>
<path d="M0 0 C1.65 0.33 3.3 0.66 5 1 C5.45510807 7.67491831 3.7672426 13.59374557 2 20 C0.02 19.67 -1.96 19.34 -4 19 C-3.71632132 16.76980273 -3.42272612 14.54086546 -3.125 12.3125 C-2.96257812 11.07113281 -2.80015625 9.82976562 -2.6328125 8.55078125 C-2.07521631 5.42204705 -1.30991877 2.87851898 0 0 Z " fill="#101010" transform="translate(206,405)"/>
<path d="M0 0 C3 0.3125 3 0.3125 6 1 C7.36623674 3.73247348 7.128426 5.98198902 7 9 C6 10 6 10 2.9375 10.0625 C1.968125 10.041875 0.99875 10.02125 0 10 C-1.58538318 7.48203847 -2.0373656 6.32134414 -1.6875 3.3125 C-1 1 -1 1 0 0 Z " fill="#E8E8E8" transform="translate(285,411)"/>
<path d="M0 0 C2 2 2 2 3.375 4.5 C5.08091684 7.12448744 6.12793328 7.91059538 9 9 C8.071875 9.433125 7.14375 9.86625 6.1875 10.3125 C3.52815927 11.72038627 1.91894095 12.76123556 0 15 C-0.3403125 14.071875 -0.3403125 14.071875 -0.6875 13.125 C-2.37929835 10.38589791 -3.99244161 9.94975528 -7 9 C-6.01 8.34 -5.02 7.68 -4 7 C-1.4559154 4.84731303 -0.56692701 3.28817667 0 0 Z " fill="#E6EDF7" transform="translate(305,126)"/>
<path d="M0 0 C2 2 2 2 3 5 C4.99665314 6.68538601 4.99665314 6.68538601 7 8 C6.21625 8.598125 5.4325 9.19625 4.625 9.8125 C1.85425677 11.91085249 1.85425677 11.91085249 0 15 C-0.391875 14.21625 -0.78375 13.4325 -1.1875 12.625 C-3.24274669 9.64843582 -4.59679258 9.01176437 -8 8 C-7.401875 7.731875 -6.80375 7.46375 -6.1875 7.1875 C-2.68911463 5.28837651 -1.26654546 3.79963639 0 0 Z " fill="#EAF0F8" transform="translate(215,120)"/>
<path d="M0 0 C0.66 0.33 1.32 0.66 2 1 C2.33 1.99 2.66 2.98 3 4 C3.66 4.66 4.32 5.32 5 6 C3.35 7.32 1.7 8.64 0 10 C-0.33 9.34 -0.66 8.68 -1 8 C-3.01669827 6.86649466 -3.01669827 6.86649466 -5 6 C-4.360625 5.566875 -3.72125 5.13375 -3.0625 4.6875 C-0.73253997 3.08760823 -0.73253997 3.08760823 0 0 Z " fill="#D7E3F2" transform="translate(224,172)"/>
<path d="M0 0 C0.66 0 1.32 0 2 0 C2.33 1.98 2.66 3.96 3 6 C1.68 6 0.36 6 -1 6 C-0.67 4.02 -0.34 2.04 0 0 Z " fill="#CFCFCF" transform="translate(243,416)"/>
<path d="M0 0 C1.65 0 3.3 0 5 0 C5 0.99 5 1.98 5 3 C3.35 3 1.7 3 0 3 C0 2.01 0 1.02 0 0 Z " fill="#FEFEFE" transform="translate(263,414)"/>
</svg>
