<?xml version="1.0" standalone="no"?>
<!DOCTYPE svg PUBLIC "-//W3C//DTD SVG 20010904//EN"
 "http://www.w3.org/TR/2001/REC-SVG-20010904/DTD/svg10.dtd">
<svg version="1.0" xmlns="http://www.w3.org/2000/svg"
 width="500.000000pt" height="500.000000pt" viewBox="0 0 500.000000 500.000000"
 preserveAspectRatio="xMidYMid meet">

<g transform="translate(0.000000,500.000000) scale(0.100000,-0.100000)"
fill="#000000" stroke="none">
<path d="M2245 4545 c-302 -43 -553 -129 -793 -272 -391 -233 -692 -583 -862
-1002 l-47 -116 -238 -3 c-269 -3 -250 6 -192 -90 69 -116 209 -257 301 -304
l29 -15 2 -239 c2 -253 11 -330 61 -529 157 -621 632 -1157 1234 -1395 256
-100 482 -143 765 -143 265 0 479 39 722 129 701 260 1203 884 1319 1639 17
113 24 458 10 502 -6 19 2 27 51 59 83 53 156 118 212 188 48 60 121 174 121
189 0 4 -107 7 -239 7 l-239 0 -22 63 c-148 406 -472 804 -840 1031 -244 151
-463 235 -750 287 -150 28 -460 35 -605 14z m443 -186 c505 -55 966 -305 1273
-691 120 -151 245 -378 304 -552 l30 -86 198 0 198 0 -23 -41 c-49 -88 -177
-168 -270 -169 -48 0 -48 0 -48 -34 0 -54 8 -66 46 -66 19 0 34 -4 34 -8 0 -5
-13 -28 -30 -50 -29 -40 -30 -46 -30 -146 0 -732 -408 -1386 -1057 -1698 -356
-171 -748 -226 -1133 -159 -595 103 -1103 488 -1365 1033 -121 252 -185 536
-185 823 0 105 0 105 -36 155 l-36 50 40 0 c47 0 49 2 54 55 l3 40 -60 6
c-108 11 -213 78 -263 168 l-23 41 198 0 198 0 30 86 c39 117 130 300 202 409
318 480 816 778 1403 838 79 8 257 6 348 -4z"/>
<path d="M2375 3999 c-543 -42 -1035 -392 -1251 -888 l-33 -76 277 -5 c262 -5
280 -6 327 -28 60 -28 81 -46 152 -135 l54 -68 21 28 c97 128 263 237 412 269
85 19 264 18 340 -2 142 -36 299 -135 379 -240 l42 -55 25 30 c14 16 47 55 74
86 34 39 68 66 105 84 55 26 59 26 329 29 183 2 272 7 272 14 0 6 -20 54 -45
106 -141 296 -401 560 -697 705 -95 47 -251 101 -353 122 -63 13 -306 38 -325
33 -3 0 -50 -4 -105 -9z m-161 -267 l31 -8 -33 -12 c-23 -8 -37 -21 -45 -41
l-11 -30 -13 30 c-8 19 -24 34 -45 41 l-33 12 34 8 c24 7 36 18 44 39 l12 30
14 -31 c10 -20 25 -33 45 -38z m897 -66 l31 -13 -31 -11 c-22 -8 -35 -21 -43
-44 l-12 -33 -8 31 c-5 22 -17 35 -39 44 l-31 13 31 13 c23 10 33 22 38 46 l7
33 13 -33 c8 -21 25 -38 44 -46z m-377 -57 c17 -10 39 -19 49 -19 10 0 15 -4
12 -10 -3 -5 -15 -10 -25 -10 -28 0 -68 -40 -83 -84 l-13 -38 -12 40 c-13 43
-52 82 -83 82 -10 0 -21 5 -24 10 -3 6 2 10 12 10 37 0 82 38 94 81 l13 42 14
-42 c9 -28 25 -49 46 -62z m-904 -114 c21 -34 85 -68 153 -80 47 -9 38 -18
-32 -34 -76 -16 -115 -49 -140 -116 -12 -31 -21 -65 -21 -75 0 -34 -17 -22
-25 18 -19 104 -62 151 -160 177 -32 8 -60 16 -62 19 -2 2 13 7 34 11 109 20
159 63 183 155 19 76 22 77 36 16 8 -32 23 -74 34 -91z m1366 -141 c23 -43 83
-79 152 -90 23 -3 42 -10 42 -14 0 -4 -19 -10 -42 -14 -64 -10 -125 -43 -148
-80 -11 -18 -26 -60 -34 -92 -7 -32 -16 -52 -19 -44 -2 8 -12 40 -21 71 -9 31
-25 68 -36 82 -20 26 -113 67 -150 67 -39 0 -19 17 33 29 98 22 137 64 168
181 l12 45 12 -51 c6 -28 20 -68 31 -90z m-936 -99 c6 -16 17 -25 32 -25 22
-1 22 -1 3 -12 -11 -6 -28 -20 -37 -32 -16 -19 -18 -19 -18 -3 0 9 -12 23 -26
29 -25 12 -25 12 -4 20 12 4 24 17 27 28 7 26 12 25 23 -5z"/>
<path d="M2361 3015 c-75 -17 -212 -82 -258 -122 l-31 -28 112 -199 c62 -109
116 -198 121 -198 11 0 327 543 320 550 -12 13 -204 10 -264 -3z"/>
<path d="M2667 2962 c-111 -178 -197 -320 -197 -325 0 -4 140 -7 311 -7 l310
0 -33 62 c-62 117 -204 246 -319 289 l-49 19 -23 -38z"/>
<path d="M1993 2777 c-81 -108 -125 -242 -126 -382 -1 -148 -25 -135 249 -135
l234 0 -33 58 c-17 32 -88 158 -156 280 -69 122 -127 222 -130 222 -3 0 -20
-20 -38 -43z"/>
<path d="M1027 2803 c-2 -5 -7 -25 -11 -45 l-7 -38 287 -2 286 -3 80 -102 79
-103 -370 0 -371 0 0 -45 0 -45 390 0 390 0 0 33 c0 17 5 50 10 72 9 39 8 40
-83 162 l-91 123 -293 0 c-160 0 -294 -3 -296 -7z"/>
<path d="M3293 2687 l-92 -123 11 -72 12 -72 388 0 388 0 0 45 0 45 -371 0
-370 0 79 103 80 102 281 3 281 2 0 23 c0 12 -3 32 -6 45 l-6 22 -292 0 -292
0 -91 -123z"/>
<path d="M2683 2528 c13 -24 86 -155 162 -291 126 -228 139 -247 154 -233 28
26 99 167 115 232 18 71 21 240 5 297 l-10 37 -225 0 -226 0 25 -42z"/>
<path d="M2602 2148 c-120 -223 -176 -331 -186 -365 -7 -23 -6 -23 71 -23 43
0 110 7 148 15 81 17 213 80 269 128 l38 34 -112 204 c-62 112 -114 205 -115
207 -2 2 -52 -88 -113 -200z"/>
<path d="M1023 2204 c3 -10 13 -47 22 -82 138 -548 586 -971 1159 -1094 136
-29 435 -32 570 -5 544 110 977 489 1150 1007 19 58 38 124 42 147 l6 41 -38
-9 c-22 -4 -197 -9 -391 -9 l-351 0 -7 -27 c-11 -47 -78 -169 -127 -232 -89
-113 -245 -212 -388 -245 -83 -20 -256 -20 -338 -1 -228 54 -432 236 -508 452
l-18 52 -376 3 c-206 2 -383 7 -394 12 -15 7 -17 6 -13 -10z"/>
<path d="M1900 2188 c1 -25 41 -101 86 -165 57 -80 149 -157 239 -199 125 -59
104 -73 233 158 l112 203 -72 6 c-40 4 -191 7 -335 8 -205 1 -263 -2 -263 -11z"/>
<path d="M2051 913 c-21 -86 -33 -144 -30 -148 2 -2 16 -6 31 -10 25 -6 27 -5
38 52 6 32 16 73 20 92 5 19 8 36 7 37 -1 0 -14 4 -29 8 -25 6 -28 3 -37 -31z"/>
<path d="M2833 925 c-68 -29 -81 -108 -27 -162 52 -52 174 -9 174 61 0 43 -22
86 -51 101 -34 18 -55 18 -96 0z m63 -43 c16 -10 26 -49 19 -71 -13 -42 -67
-29 -78 18 -11 45 24 76 59 53z"/>
<path d="M2165 898 c-30 -27 -42 -80 -26 -121 23 -59 133 -73 168 -21 14 22
14 27 2 35 -21 13 -46 11 -53 -6 -7 -19 -40 -19 -56 0 -21 26 0 79 32 83 19 2
28 -2 33 -17 4 -14 15 -21 31 -21 19 0 24 5 24 24 0 59 -103 88 -155 44z"/>
<path d="M2604 903 l-41 -4 4 -52 c10 -132 11 -137 45 -137 29 0 30 2 26 35
-5 44 14 47 39 5 14 -24 24 -30 50 -30 38 0 40 6 13 40 -24 30 -24 37 -5 56
21 21 19 50 -5 74 -20 20 -33 21 -126 13z m77 -58 c0 -5 -12 -11 -26 -13 -18
-2 -25 1 -25 13 0 12 7 15 25 13 14 -2 26 -7 26 -13z"/>
<path d="M2406 892 c-9 -15 -66 -163 -66 -172 0 -16 57 -11 64 5 3 9 18 15 35
15 16 0 31 -6 35 -15 3 -9 18 -15 37 -15 21 0 30 4 27 13 -3 6 -17 49 -32 95
-27 81 -28 82 -61 82 -19 0 -36 -4 -39 -8z m44 -71 c0 -5 3 -16 6 -25 4 -12 0
-16 -16 -16 -16 0 -20 4 -16 16 3 9 6 20 6 25 0 5 5 9 10 9 6 0 10 -4 10 -9z"/>
</g>
</svg>
